<svg width="70" height="70" viewBox="0 0 70 70" fill="none" xmlns="http://www.w3.org/2000/svg">
<rect width="70" height="70" rx="12" fill="#25D366"/>
<g clip-path="url(#clip0_65_2435)">
<path d="M38.75 34.0625H31.25C31.25 33.0679 31.6451 32.1141 32.3483 31.4108C33.0516 30.7076 34.0054 30.3125 35 30.3125C35.9946 30.3125 36.9484 30.7076 37.6517 31.4108C38.3549 32.1141 38.75 33.0679 38.75 34.0625Z" stroke="white" stroke-width="1.5" stroke-linecap="round" stroke-linejoin="round"/>
<path d="M32.1875 27.5C32.1875 28.2459 32.4838 28.9613 33.0113 29.4887C33.5387 30.0162 34.2541 30.3125 35 30.3125C35.7459 30.3125 36.4613 30.0162 36.9887 29.4887C37.5162 28.9613 37.8125 28.2459 37.8125 27.5C37.8125 26.7541 37.5162 26.0387 36.9887 25.5113C36.4613 24.9838 35.7459 24.6875 35 24.6875C34.2541 24.6875 33.5387 24.9838 33.0113 25.5113C32.4838 26.0387 32.1875 26.7541 32.1875 27.5Z" stroke="white" stroke-width="1.5" stroke-linecap="round" stroke-linejoin="round"/>
<path d="M28.4375 20.9375H41.5625C41.5625 20.9375 45.3125 20.9375 45.3125 24.6875V30.3125C45.3125 30.3125 45.3125 34.0625 41.5625 34.0625H28.4375C28.4375 34.0625 24.6875 34.0625 24.6875 30.3125V24.6875C24.6875 24.6875 24.6875 20.9375 28.4375 20.9375ZM22.8125 42.5C22.8125 43.2459 23.1088 43.9613 23.6363 44.4887C24.1637 45.0162 24.8791 45.3125 25.625 45.3125C26.3709 45.3125 27.0863 45.0162 27.6137 44.4887C28.1412 43.9613 28.4375 43.2459 28.4375 42.5C28.4375 41.7541 28.1412 41.0387 27.6137 40.5113C27.0863 39.9838 26.3709 39.6875 25.625 39.6875C24.8791 39.6875 24.1637 39.9838 23.6363 40.5113C23.1088 41.0387 22.8125 41.7541 22.8125 42.5Z" stroke="white" stroke-width="1.5" stroke-linecap="round" stroke-linejoin="round"/>
<path d="M30.3125 49.0625C29.8594 48.2129 29.1839 47.5025 28.3583 47.0071C27.5326 46.5117 26.5879 46.25 25.625 46.25C24.6621 46.25 23.7174 46.5117 22.8917 47.0071C22.0661 47.5025 21.3906 48.2129 20.9375 49.0625M41.5625 42.5C41.5625 43.2459 41.8588 43.9613 42.3863 44.4887C42.9137 45.0162 43.6291 45.3125 44.375 45.3125C45.1209 45.3125 45.8363 45.0162 46.3637 44.4887C46.8912 43.9613 47.1875 43.2459 47.1875 42.5C47.1875 41.7541 46.8912 41.0387 46.3637 40.5113C45.8363 39.9838 45.1209 39.6875 44.375 39.6875C43.6291 39.6875 42.9137 39.9838 42.3863 40.5113C41.8588 41.0387 41.5625 41.7541 41.5625 42.5Z" stroke="white" stroke-width="1.5" stroke-linecap="round" stroke-linejoin="round"/>
<path d="M49.0625 49.0625C48.6094 48.2129 47.9339 47.5025 47.1083 47.0071C46.2826 46.5117 45.3379 46.25 44.375 46.25C43.4121 46.25 42.4674 46.5117 41.6417 47.0071C40.8161 47.5025 40.1406 48.2129 39.6875 49.0625M32.1875 42.5C32.1875 43.2459 32.4838 43.9613 33.0113 44.4887C33.5387 45.0162 34.2541 45.3125 35 45.3125C35.7459 45.3125 36.4613 45.0162 36.9887 44.4887C37.5162 43.9613 37.8125 43.2459 37.8125 42.5C37.8125 41.7541 37.5162 41.0387 36.9887 40.5113C36.4613 39.9838 35.7459 39.6875 35 39.6875C34.2541 39.6875 33.5387 39.9838 33.0113 40.5113C32.4838 41.0387 32.1875 41.7541 32.1875 42.5Z" stroke="white" stroke-width="1.5" stroke-linecap="round" stroke-linejoin="round"/>
<path d="M39.6875 49.0625C39.2344 48.2129 38.5589 47.5025 37.7333 47.0071C36.9076 46.5117 35.9629 46.25 35 46.25C34.0371 46.25 33.0924 46.5117 32.2667 47.0071C31.4411 47.5025 30.7656 48.2129 30.3125 49.0625" stroke="white" stroke-width="1.5" stroke-linecap="round" stroke-linejoin="round"/>
</g>
<defs>
<clipPath id="clip0_65_2435">
<rect width="30" height="30" fill="white" transform="translate(20 20)"/>
</clipPath>
</defs>
</svg>
