<svg width="70" height="70" viewBox="0 0 70 70" fill="none" xmlns="http://www.w3.org/2000/svg">
<rect width="70" height="70" rx="12" fill="#25D366"/>
<g clip-path="url(#clip0_65_2449)">
<path d="M43.75 28.75C43.75 28.75 37.5 37.5 28.125 37.5M28.125 37.5C25.625 37.5 21.25 38.75 21.25 43.75V48.75H35V43.75C35 40.625 38.75 42.5 43.75 33.75L41.875 31.875M28.125 37.5C29.2853 37.5 30.3981 37.0391 31.2186 36.2186C32.0391 35.3981 32.5 34.2853 32.5 33.125C32.5 31.9647 32.0391 30.8519 31.2186 30.0314C30.3981 29.2109 29.2853 28.75 28.125 28.75C26.9647 28.75 25.8519 29.2109 25.0314 30.0314C24.2109 30.8519 23.75 31.9647 23.75 33.125C23.75 34.2853 24.2109 35.3981 25.0314 36.2186C25.8519 37.0391 26.9647 37.5 28.125 37.5ZM23.75 26.25V22.5H48.75V40H45M33.75 21.25H38.75V23.75H33.75V21.25Z" stroke="white" stroke-width="2"/>
</g>
<defs>
<clipPath id="clip0_65_2449">
<rect width="30" height="30" fill="white" transform="translate(20 20)"/>
</clipPath>
</defs>
</svg>
