<svg width="70" height="70" viewBox="0 0 70 70" fill="none" xmlns="http://www.w3.org/2000/svg">
<rect width="70" height="70" rx="12" fill="#25D366"/>
<path d="M35 45.0001C36.5625 45.0001 37.8908 44.4534 38.985 43.3601C40.0792 42.2667 40.6258 40.9384 40.625 39.3751C40.6242 37.8117 40.0775 36.4838 38.985 35.3913C37.8925 34.2988 36.5642 33.7517 35 33.7501C33.4358 33.7484 32.1079 34.2955 31.0162 35.3913C29.9246 36.4872 29.3775 37.8151 29.375 39.3751C29.3725 40.9351 29.9196 42.2634 31.0162 43.3601C32.1129 44.4567 33.4408 45.0034 35 45.0001ZM31.3925 33.5438C31.7925 33.2822 32.2188 33.0717 32.6713 32.9126C33.1246 32.7534 33.5908 32.6367 34.07 32.5626L31.225 26.9226H28.1L31.3925 33.5438ZM29.0338 43.6688C29.0479 43.5288 29.0804 43.3747 29.1312 43.2063C29.1812 43.0363 29.2546 42.8572 29.3512 42.6688C28.9662 42.0463 28.6888 41.3742 28.5188 40.6526C28.3488 39.9309 28.3042 39.188 28.385 38.4238C28.385 37.7988 28.4933 37.2055 28.71 36.6438C28.9258 36.083 29.2258 35.5784 29.61 35.1301C29.3125 35.1809 29.0508 35.2876 28.825 35.4501C28.5992 35.6134 28.4379 35.808 28.3412 36.0338C27.4121 36.2597 26.6879 36.7826 26.1687 37.6026C25.6496 38.4226 25.4908 39.3309 25.6925 40.3276C25.6925 41.2567 26.0171 42.0459 26.6663 42.6951C27.3154 43.3442 28.1046 43.6697 29.0338 43.6688ZM40.9663 43.6676C42.0979 43.6009 43.0533 43.1576 43.8325 42.3376C44.6108 41.5184 45 40.5309 45 39.3751C45 38.2192 44.6104 37.2317 43.8313 36.4126C43.0521 35.5934 42.0971 35.1497 40.9663 35.0813C40.8704 35.0813 40.7746 35.0855 40.6787 35.0938C40.5821 35.1022 40.4854 35.1142 40.3888 35.1301C40.8554 35.7184 41.2196 36.3734 41.4812 37.0951C41.7437 37.8167 41.875 38.5767 41.875 39.3751C41.875 40.1734 41.7442 40.9334 41.4825 41.6551C41.22 42.3767 40.8558 43.0317 40.39 43.6201C40.4858 43.6367 40.5817 43.6488 40.6775 43.6563C40.7742 43.6647 40.8704 43.6676 40.9663 43.6676ZM35 46.2501C34.1992 46.2501 33.4425 46.1263 32.73 45.8788C32.0175 45.6313 31.3704 45.2751 30.7887 44.8101C30.5687 44.8842 30.3371 44.9342 30.0938 44.9601C29.8504 44.9859 29.6004 44.9992 29.3438 45.0001C27.8004 45.0001 26.4825 44.4538 25.39 43.3613C24.2975 42.2688 23.7508 40.9505 23.75 39.4063C23.75 37.8822 24.2821 36.5784 25.3462 35.4951C26.4104 34.4117 27.6996 33.8534 29.2137 33.8201C29.3904 33.8201 29.5588 33.8322 29.7188 33.8563C29.8788 33.8797 30.0388 33.9076 30.1988 33.9401L26.7975 27.1251C26.6208 26.7884 26.6325 26.4622 26.8325 26.1463C27.0317 25.8313 27.3229 25.6738 27.7062 25.6738H30.775C31.1583 25.6738 31.5067 25.7747 31.82 25.9763C32.1333 26.178 32.3804 26.4472 32.5612 26.7838L35 31.6338L37.4375 26.7838C37.6183 26.4472 37.8654 26.178 38.1788 25.9763C38.4921 25.7747 38.8404 25.6738 39.2237 25.6738H42.295C42.6783 25.6738 42.97 25.8313 43.17 26.1463C43.3692 26.463 43.3804 26.7892 43.2038 27.1251L39.8563 33.8538C40.0004 33.8213 40.1487 33.7972 40.3012 33.7813C40.4529 33.7647 40.6092 33.7563 40.77 33.7563C42.3 33.7955 43.5958 34.3567 44.6575 35.4401C45.7192 36.5234 46.25 37.8351 46.25 39.3751C46.25 40.9392 45.7037 42.268 44.6112 43.3613C43.5187 44.4547 42.19 45.0009 40.625 45.0001C40.3733 45.0001 40.1287 44.9867 39.8913 44.9601C39.6538 44.9334 39.4246 44.8834 39.2037 44.8101C38.6229 45.2592 37.9771 45.6113 37.2662 45.8663C36.5554 46.1213 35.8 46.2492 35 46.2501ZM35 40.7501L33.6613 41.7626C33.5521 41.8342 33.4513 41.8355 33.3588 41.7663C33.2663 41.6972 33.2404 41.6055 33.2812 41.4913L33.7787 39.8238L32.4637 38.8751C32.3554 38.8034 32.3221 38.7117 32.3637 38.6001C32.4054 38.4884 32.4854 38.4326 32.6038 38.4326H34.2387L34.76 36.6901C34.8017 36.5767 34.8817 36.5201 35 36.5201C35.1183 36.5201 35.1983 36.5767 35.24 36.6901L35.7613 38.4326H37.3962C37.5146 38.4326 37.5946 38.4884 37.6363 38.6001C37.6779 38.7117 37.6446 38.8034 37.5363 38.8751L36.2213 39.8251L36.7188 41.4901C36.7604 41.6042 36.735 41.6959 36.6425 41.7651C36.55 41.8342 36.4488 41.8334 36.3387 41.7626L35 40.7501ZM38.6088 33.5438L41.93 26.9238H38.775L36.0462 32.3313L36.1837 32.6063C36.6196 32.6897 37.0412 32.8063 37.4487 32.9563C37.8554 33.1063 38.2421 33.3022 38.6088 33.5438Z" fill="white"/>
</svg>
