<svg width="70" height="70" viewBox="0 0 70 70" fill="none" xmlns="http://www.w3.org/2000/svg">
<rect width="70" height="70" rx="12" fill="#25D366"/>
<path d="M47.1875 33.125H35.9375V30.3125H36.875C37.3723 30.3125 37.8492 30.115 38.2008 29.7633C38.5525 29.4117 38.75 28.9348 38.75 28.4375V24.6875C38.75 24.1902 38.5525 23.7133 38.2008 23.3617C37.8492 23.01 37.3723 22.8125 36.875 22.8125H33.125C32.6277 22.8125 32.1508 23.01 31.7992 23.3617C31.4475 23.7133 31.25 24.1902 31.25 24.6875V28.4375C31.25 28.9348 31.4475 29.4117 31.7992 29.7633C32.1508 30.115 32.6277 30.3125 33.125 30.3125H34.0625V33.125H22.8125C22.5639 33.125 22.3254 33.2238 22.1496 33.3996C21.9738 33.5754 21.875 33.8139 21.875 34.0625C21.875 34.3111 21.9738 34.5496 22.1496 34.7254C22.3254 34.9012 22.5639 35 22.8125 35H26.5625V38.75H25.625C25.1277 38.75 24.6508 38.9475 24.2992 39.2992C23.9475 39.6508 23.75 40.1277 23.75 40.625V44.375C23.75 44.8723 23.9475 45.3492 24.2992 45.7008C24.6508 46.0525 25.1277 46.25 25.625 46.25H29.375C29.8723 46.25 30.3492 46.0525 30.7008 45.7008C31.0525 45.3492 31.25 44.8723 31.25 44.375V40.625C31.25 40.1277 31.0525 39.6508 30.7008 39.2992C30.3492 38.9475 29.8723 38.75 29.375 38.75H28.4375V35H41.5625V38.75H40.625C40.1277 38.75 39.6508 38.9475 39.2992 39.2992C38.9475 39.6508 38.75 40.1277 38.75 40.625V44.375C38.75 44.8723 38.9475 45.3492 39.2992 45.7008C39.6508 46.0525 40.1277 46.25 40.625 46.25H44.375C44.8723 46.25 45.3492 46.0525 45.7008 45.7008C46.0525 45.3492 46.25 44.8723 46.25 44.375V40.625C46.25 40.1277 46.0525 39.6508 45.7008 39.2992C45.3492 38.9475 44.8723 38.75 44.375 38.75H43.4375V35H47.1875C47.4361 35 47.6746 34.9012 47.8504 34.7254C48.0262 34.5496 48.125 34.3111 48.125 34.0625C48.125 33.8139 48.0262 33.5754 47.8504 33.3996C47.6746 33.2238 47.4361 33.125 47.1875 33.125ZM33.125 24.6875H36.875V28.4375H33.125V24.6875ZM29.375 44.375H25.625V40.625H29.375V44.375ZM44.375 44.375H40.625V40.625H44.375V44.375Z" fill="white"/>
</svg>
