<svg width="70" height="70" viewBox="0 0 70 70" fill="none" xmlns="http://www.w3.org/2000/svg">
<rect width="70" height="70" rx="12" fill="#25D366"/>
<path d="M26.395 45C25.8192 45 25.3388 44.8075 24.9538 44.4225C24.5688 44.0375 24.3758 43.5567 24.375 42.98V24.375C24.375 24.1975 24.435 24.0492 24.555 23.93C24.675 23.8108 24.8237 23.7508 25.0012 23.75C25.1787 23.7492 25.3271 23.8092 25.4462 23.93C25.5654 24.0508 25.625 24.1992 25.625 24.375V42.9813C25.625 43.1729 25.705 43.3492 25.865 43.51C26.025 43.6708 26.2012 43.7508 26.3937 43.75H45C45.1775 43.75 45.3258 43.81 45.445 43.93C45.5642 44.05 45.6242 44.1988 45.625 44.3763C45.6258 44.5538 45.5658 44.7021 45.445 44.8213C45.3242 44.9404 45.1758 45 45 45H26.395ZM30.145 40.625C29.8858 40.625 29.6687 40.5375 29.4937 40.3625C29.3187 40.1875 29.2313 39.9708 29.2313 39.7125V32.4025C29.2313 32.1442 29.3187 31.9275 29.4937 31.7525C29.6687 31.5775 29.8854 31.49 30.1437 31.49H30.7212C31.0071 31.49 31.2471 31.5871 31.4412 31.7813C31.6346 31.9763 31.7313 32.2179 31.7313 32.5063V39.6175C31.7313 39.9058 31.6342 40.1454 31.44 40.3363C31.2467 40.5279 31.0071 40.6238 30.7212 40.6238L30.145 40.625ZM35.77 40.625C35.5108 40.625 35.2938 40.5375 35.1188 40.3625C34.9438 40.1875 34.8563 39.9708 34.8563 39.7125V26.25C34.8563 25.9642 34.9529 25.7246 35.1462 25.5313C35.3396 25.3379 35.5792 25.2408 35.865 25.24H36.4425C36.7008 25.24 36.9175 25.3275 37.0925 25.5025C37.2675 25.6775 37.355 25.8946 37.355 26.1538V39.6163C37.355 39.9021 37.2587 40.1417 37.0662 40.335C36.8721 40.5283 36.6321 40.625 36.3462 40.625H35.77ZM41.395 40.625C41.1358 40.625 40.9187 40.5375 40.7437 40.3625C40.5687 40.1875 40.4813 39.9708 40.4813 39.7125V37.5C40.4813 37.2142 40.5779 36.9746 40.7713 36.7813C40.9646 36.5879 41.2042 36.4908 41.49 36.49H42.0675C42.3258 36.49 42.5425 36.5775 42.7175 36.7525C42.8925 36.9275 42.98 37.1446 42.98 37.4038V39.6163C42.98 39.9021 42.8837 40.1417 42.6912 40.335C42.4988 40.5283 42.2587 40.625 41.9712 40.625H41.395Z" fill="white"/>
</svg>
