<svg width="70" height="71" viewBox="0 0 70 71" fill="none" xmlns="http://www.w3.org/2000/svg">
<rect y="0.5" width="70" height="70" rx="12" fill="white"/>
<path d="M26.395 45.5C25.8192 45.5 25.3388 45.3075 24.9538 44.9225C24.5688 44.5375 24.3758 44.0567 24.375 43.48V24.875C24.375 24.6975 24.435 24.5492 24.555 24.43C24.675 24.3108 24.8237 24.2508 25.0012 24.25C25.1787 24.2492 25.3271 24.3092 25.4462 24.43C25.5654 24.5508 25.625 24.6992 25.625 24.875V43.4813C25.625 43.6729 25.705 43.8492 25.865 44.01C26.025 44.1708 26.2012 44.2508 26.3937 44.25H45C45.1775 44.25 45.3258 44.31 45.445 44.43C45.5642 44.55 45.6242 44.6988 45.625 44.8763C45.6258 45.0538 45.5658 45.2021 45.445 45.3213C45.3242 45.4404 45.1758 45.5 45 45.5H26.395ZM30.145 41.125C29.8858 41.125 29.6687 41.0375 29.4937 40.8625C29.3187 40.6875 29.2313 40.4708 29.2313 40.2125V32.9025C29.2313 32.6442 29.3187 32.4275 29.4937 32.2525C29.6687 32.0775 29.8854 31.99 30.1437 31.99H30.7212C31.0071 31.99 31.2471 32.0871 31.4412 32.2813C31.6346 32.4763 31.7313 32.7179 31.7313 33.0063V40.1175C31.7313 40.4058 31.6342 40.6454 31.44 40.8363C31.2467 41.0279 31.0071 41.1238 30.7212 41.1238L30.145 41.125ZM35.77 41.125C35.5108 41.125 35.2938 41.0375 35.1188 40.8625C34.9438 40.6875 34.8563 40.4708 34.8563 40.2125V26.75C34.8563 26.4642 34.9529 26.2246 35.1462 26.0313C35.3396 25.8379 35.5792 25.7408 35.865 25.74H36.4425C36.7008 25.74 36.9175 25.8275 37.0925 26.0025C37.2675 26.1775 37.355 26.3946 37.355 26.6538V40.1163C37.355 40.4021 37.2587 40.6417 37.0662 40.835C36.8721 41.0283 36.6321 41.125 36.3462 41.125H35.77ZM41.395 41.125C41.1358 41.125 40.9187 41.0375 40.7437 40.8625C40.5687 40.6875 40.4813 40.4708 40.4813 40.2125V38C40.4813 37.7142 40.5779 37.4746 40.7713 37.2813C40.9646 37.0879 41.2042 36.9908 41.49 36.99H42.0675C42.3258 36.99 42.5425 37.0775 42.7175 37.2525C42.8925 37.4275 42.98 37.6446 42.98 37.9038V40.1163C42.98 40.4021 42.8837 40.6417 42.6912 40.835C42.4988 41.0283 42.2587 41.125 41.9712 41.125H41.395Z" fill="#25D366"/>
</svg>
