<svg width="70" height="71" viewBox="0 0 70 71" fill="none" xmlns="http://www.w3.org/2000/svg">
<rect y="0.5" width="70" height="70" rx="12" fill="white"/>
<path d="M47.1875 33.625H35.9375V30.8125H36.875C37.3723 30.8125 37.8492 30.615 38.2008 30.2633C38.5525 29.9117 38.75 29.4348 38.75 28.9375V25.1875C38.75 24.6902 38.5525 24.2133 38.2008 23.8617C37.8492 23.51 37.3723 23.3125 36.875 23.3125H33.125C32.6277 23.3125 32.1508 23.51 31.7992 23.8617C31.4475 24.2133 31.25 24.6902 31.25 25.1875V28.9375C31.25 29.4348 31.4475 29.9117 31.7992 30.2633C32.1508 30.615 32.6277 30.8125 33.125 30.8125H34.0625V33.625H22.8125C22.5639 33.625 22.3254 33.7238 22.1496 33.8996C21.9738 34.0754 21.875 34.3139 21.875 34.5625C21.875 34.8111 21.9738 35.0496 22.1496 35.2254C22.3254 35.4012 22.5639 35.5 22.8125 35.5H26.5625V39.25H25.625C25.1277 39.25 24.6508 39.4475 24.2992 39.7992C23.9475 40.1508 23.75 40.6277 23.75 41.125V44.875C23.75 45.3723 23.9475 45.8492 24.2992 46.2008C24.6508 46.5525 25.1277 46.75 25.625 46.75H29.375C29.8723 46.75 30.3492 46.5525 30.7008 46.2008C31.0525 45.8492 31.25 45.3723 31.25 44.875V41.125C31.25 40.6277 31.0525 40.1508 30.7008 39.7992C30.3492 39.4475 29.8723 39.25 29.375 39.25H28.4375V35.5H41.5625V39.25H40.625C40.1277 39.25 39.6508 39.4475 39.2992 39.7992C38.9475 40.1508 38.75 40.6277 38.75 41.125V44.875C38.75 45.3723 38.9475 45.8492 39.2992 46.2008C39.6508 46.5525 40.1277 46.75 40.625 46.75H44.375C44.8723 46.75 45.3492 46.5525 45.7008 46.2008C46.0525 45.8492 46.25 45.3723 46.25 44.875V41.125C46.25 40.6277 46.0525 40.1508 45.7008 39.7992C45.3492 39.4475 44.8723 39.25 44.375 39.25H43.4375V35.5H47.1875C47.4361 35.5 47.6746 35.4012 47.8504 35.2254C48.0262 35.0496 48.125 34.8111 48.125 34.5625C48.125 34.3139 48.0262 34.0754 47.8504 33.8996C47.6746 33.7238 47.4361 33.625 47.1875 33.625ZM33.125 25.1875H36.875V28.9375H33.125V25.1875ZM29.375 44.875H25.625V41.125H29.375V44.875ZM44.375 44.875H40.625V41.125H44.375V44.875Z" fill="#25D366"/>
</svg>
