<svg width="70" height="71" viewBox="0 0 70 71" fill="none" xmlns="http://www.w3.org/2000/svg">
<rect y="0.5" width="70" height="70" rx="12" fill="white"/>
<path d="M35 45.5001C36.5625 45.5001 37.8908 44.9534 38.985 43.8601C40.0792 42.7667 40.6258 41.4384 40.625 39.8751C40.6242 38.3117 40.0775 36.9838 38.985 35.8913C37.8925 34.7988 36.5642 34.2517 35 34.2501C33.4358 34.2484 32.1079 34.7955 31.0162 35.8913C29.9246 36.9872 29.3775 38.3151 29.375 39.8751C29.3725 41.4351 29.9196 42.7634 31.0162 43.8601C32.1129 44.9567 33.4408 45.5034 35 45.5001ZM31.3925 34.0438C31.7925 33.7822 32.2188 33.5717 32.6713 33.4126C33.1246 33.2534 33.5908 33.1367 34.07 33.0626L31.225 27.4226H28.1L31.3925 34.0438ZM29.0338 44.1688C29.0479 44.0288 29.0804 43.8747 29.1312 43.7063C29.1812 43.5363 29.2546 43.3572 29.3512 43.1688C28.9662 42.5463 28.6888 41.8742 28.5188 41.1526C28.3488 40.4309 28.3042 39.688 28.385 38.9238C28.385 38.2988 28.4933 37.7055 28.71 37.1438C28.9258 36.583 29.2258 36.0784 29.61 35.6301C29.3125 35.6809 29.0508 35.7876 28.825 35.9501C28.5992 36.1134 28.4379 36.308 28.3412 36.5338C27.4121 36.7597 26.6879 37.2826 26.1687 38.1026C25.6496 38.9226 25.4908 39.8309 25.6925 40.8276C25.6925 41.7567 26.0171 42.5459 26.6663 43.1951C27.3154 43.8442 28.1046 44.1697 29.0338 44.1688ZM40.9663 44.1676C42.0979 44.1009 43.0533 43.6576 43.8325 42.8376C44.6108 42.0184 45 41.0309 45 39.8751C45 38.7192 44.6104 37.7317 43.8313 36.9126C43.0521 36.0934 42.0971 35.6497 40.9663 35.5813C40.8704 35.5813 40.7746 35.5855 40.6787 35.5938C40.5821 35.6022 40.4854 35.6142 40.3888 35.6301C40.8554 36.2184 41.2196 36.8734 41.4812 37.5951C41.7437 38.3167 41.875 39.0767 41.875 39.8751C41.875 40.6734 41.7442 41.4334 41.4825 42.1551C41.22 42.8767 40.8558 43.5317 40.39 44.1201C40.4858 44.1367 40.5817 44.1488 40.6775 44.1563C40.7742 44.1647 40.8704 44.1676 40.9663 44.1676ZM35 46.7501C34.1992 46.7501 33.4425 46.6263 32.73 46.3788C32.0175 46.1313 31.3704 45.7751 30.7887 45.3101C30.5687 45.3842 30.3371 45.4342 30.0938 45.4601C29.8504 45.4859 29.6004 45.4992 29.3438 45.5001C27.8004 45.5001 26.4825 44.9538 25.39 43.8613C24.2975 42.7688 23.7508 41.4505 23.75 39.9063C23.75 38.3822 24.2821 37.0784 25.3462 35.9951C26.4104 34.9117 27.6996 34.3534 29.2137 34.3201C29.3904 34.3201 29.5588 34.3322 29.7188 34.3563C29.8788 34.3797 30.0388 34.4076 30.1988 34.4401L26.7975 27.6251C26.6208 27.2884 26.6325 26.9622 26.8325 26.6463C27.0317 26.3313 27.3229 26.1738 27.7062 26.1738H30.775C31.1583 26.1738 31.5067 26.2747 31.82 26.4763C32.1333 26.678 32.3804 26.9472 32.5612 27.2838L35 32.1338L37.4375 27.2838C37.6183 26.9472 37.8654 26.678 38.1788 26.4763C38.4921 26.2747 38.8404 26.1738 39.2237 26.1738H42.295C42.6783 26.1738 42.97 26.3313 43.17 26.6463C43.3692 26.963 43.3804 27.2892 43.2038 27.6251L39.8563 34.3538C40.0004 34.3213 40.1487 34.2972 40.3012 34.2813C40.4529 34.2647 40.6092 34.2563 40.77 34.2563C42.3 34.2955 43.5958 34.8567 44.6575 35.9401C45.7192 37.0234 46.25 38.3351 46.25 39.8751C46.25 41.4392 45.7037 42.768 44.6112 43.8613C43.5187 44.9547 42.19 45.5009 40.625 45.5001C40.3733 45.5001 40.1287 45.4867 39.8913 45.4601C39.6538 45.4334 39.4246 45.3834 39.2037 45.3101C38.6229 45.7592 37.9771 46.1113 37.2662 46.3663C36.5554 46.6213 35.8 46.7492 35 46.7501ZM35 41.2501L33.6613 42.2626C33.5521 42.3342 33.4513 42.3355 33.3588 42.2663C33.2663 42.1972 33.2404 42.1055 33.2812 41.9913L33.7787 40.3238L32.4637 39.3751C32.3554 39.3034 32.3221 39.2117 32.3637 39.1001C32.4054 38.9884 32.4854 38.9326 32.6038 38.9326H34.2387L34.76 37.1901C34.8017 37.0767 34.8817 37.0201 35 37.0201C35.1183 37.0201 35.1983 37.0767 35.24 37.1901L35.7613 38.9326H37.3962C37.5146 38.9326 37.5946 38.9884 37.6363 39.1001C37.6779 39.2117 37.6446 39.3034 37.5363 39.3751L36.2213 40.3251L36.7188 41.9901C36.7604 42.1042 36.735 42.1959 36.6425 42.2651C36.55 42.3342 36.4488 42.3334 36.3387 42.2626L35 41.2501ZM38.6088 34.0438L41.93 27.4238H38.775L36.0462 32.8313L36.1837 33.1063C36.6196 33.1897 37.0412 33.3063 37.4487 33.4563C37.8554 33.6063 38.2421 33.8022 38.6088 34.0438Z" fill="#25D366"/>
</svg>
