<svg width="20" height="24" viewBox="0 0 20 24" fill="none" xmlns="http://www.w3.org/2000/svg">
<path d="M13.6063 19.4999C12.8754 19.4999 12.2521 19.2416 11.7362 18.7249C11.2204 18.2082 10.9621 17.5853 10.9613 16.8562C10.9604 16.127 11.2188 15.5032 11.7362 14.9849C12.2537 14.4666 12.8771 14.2087 13.6063 14.2112C14.3354 14.2137 14.9588 14.472 15.4763 14.9862C15.9938 15.5003 16.2517 16.1237 16.25 16.8562C16.2483 17.5887 15.99 18.212 15.475 18.7262C14.96 19.2403 14.3371 19.4982 13.6063 19.4999ZM2.01875 23.2499C1.44375 23.2499 0.96375 23.0574 0.57875 22.6724C0.19375 22.2874 0.000833333 21.807 0 21.2312V5.26865C0 4.69365 0.192916 4.21365 0.57875 3.82865C0.964583 3.44365 1.445 3.25074 2.02 3.2499H4.23125V0.462402H5.5775V3.2499H14.52V0.462402H15.77V3.2499H17.9813C18.5562 3.2499 19.0367 3.44282 19.4225 3.82865C19.8083 4.21449 20.0008 4.6949 20 5.2699V21.2312C20 21.8062 19.8075 22.2866 19.4225 22.6724C19.0375 23.0582 18.5567 23.2507 17.98 23.2499H2.01875ZM2.01875 21.9999H17.9813C18.1729 21.9999 18.3492 21.9199 18.51 21.7599C18.6708 21.5999 18.7508 21.4232 18.75 21.2299V10.2699H1.25V21.2312C1.25 21.4228 1.33 21.5991 1.49 21.7599C1.65 21.9207 1.82625 22.0007 2.01875 21.9999ZM1.25 9.01865H18.75V5.26865C18.75 5.07699 18.67 4.90074 18.51 4.7399C18.35 4.57907 18.1733 4.49907 17.98 4.4999H2.02C1.8275 4.4999 1.65083 4.5799 1.49 4.7399C1.32917 4.8999 1.24917 5.07657 1.25 5.2699V9.01865Z" fill="#006B4F"/>
</svg>
