<svg width="26" height="26" viewBox="0 0 26 26" fill="none" xmlns="http://www.w3.org/2000/svg">
<path fill-rule="evenodd" clip-rule="evenodd" d="M13.75 12.3787L18.6137 17.2425L17.5537 18.3037L12.25 13V5.5H13.75V12.3787ZM13 25.5C6.09625 25.5 0.5 19.9037 0.5 13C0.5 6.09625 6.09625 0.5 13 0.5C19.9037 0.5 25.5 6.09625 25.5 13C25.5 19.9037 19.9037 25.5 13 25.5ZM13 24C15.9174 24 18.7153 22.8411 20.7782 20.7782C22.8411 18.7153 24 15.9174 24 13C24 10.0826 22.8411 7.28473 20.7782 5.22183C18.7153 3.15892 15.9174 2 13 2C10.0826 2 7.28473 3.15892 5.22183 5.22183C3.15892 7.28473 2 10.0826 2 13C2 15.9174 3.15892 18.7153 5.22183 20.7782C7.28473 22.8411 10.0826 24 13 24Z" fill="#006B4F"/>
</svg>
