<svg width="25" height="25" viewBox="0 0 25 25" fill="none" xmlns="http://www.w3.org/2000/svg">
<path d="M17.525 23.4C16.8219 24.1023 15.8688 24.4967 14.875 24.4967C13.8812 24.4967 12.9281 24.1023 12.225 23.4L1.8125 13.25C1.0625 12.5625 0.5 11.5375 0.5 10.4375V4.5C0.5 3.50544 0.895088 2.55161 1.59835 1.84835C2.30161 1.14509 3.25544 0.75 4.25 0.75H10.1875C11.2875 0.75 12.3125 1.3125 13 2.0625L23.0875 12.5375C23.7898 13.2406 24.1842 14.1937 24.1842 15.1875C24.1842 16.1813 23.7898 17.1344 23.0875 17.8375L17.525 23.4ZM16.6375 22.5125L22.2 16.95C23.175 15.975 23.175 14.3875 22.2 13.4125L11.8875 2.725C11.475 2.25 10.875 2 10.1875 2L4.2125 1.9625C2.8375 1.9625 1.75 3.125 1.75 4.5V10.4375C1.75 11.125 2 11.725 2.475 12.1375L13.1 22.5125C14.075 23.4875 15.6625 23.4875 16.6375 22.5125ZM6.125 3.25C6.9538 3.25 7.74866 3.57924 8.33471 4.16529C8.92076 4.75134 9.25 5.5462 9.25 6.375C9.25 7.2038 8.92076 7.99866 8.33471 8.58471C7.74866 9.17076 6.9538 9.5 6.125 9.5C5.2962 9.5 4.50134 9.17076 3.91529 8.58471C3.32924 7.99866 3 7.2038 3 6.375C3 5.5462 3.32924 4.75134 3.91529 4.16529C4.50134 3.57924 5.2962 3.25 6.125 3.25ZM6.125 4.5C5.62772 4.5 5.15081 4.69754 4.79917 5.04917C4.44754 5.40081 4.25 5.87772 4.25 6.375C4.25 6.87228 4.44754 7.34919 4.79917 7.70083C5.15081 8.05246 5.62772 8.25 6.125 8.25C6.62228 8.25 7.09919 8.05246 7.45083 7.70083C7.80246 7.34919 8 6.87228 8 6.375C8 5.87772 7.80246 5.40081 7.45083 5.04917C7.09919 4.69754 6.62228 4.5 6.125 4.5Z" fill="white" fill-opacity="0.5"/>
</svg>
