<svg width="24" height="25" viewBox="0 0 24 25" fill="none" xmlns="http://www.w3.org/2000/svg">
<g clip-path="url(#clip0_65_3903)">
<path d="M0 3.28787C0 2.47978 0.270278 1.81311 0.810811 1.28788C1.35134 0.762618 2.05406 0.5 2.91892 0.5C3.76835 0.5 4.45559 0.758569 4.98069 1.27576C5.52123 1.80909 5.79151 2.50402 5.79151 3.3606C5.79151 4.13636 5.52897 4.78281 5.00386 5.29999C4.46333 5.83332 3.7529 6.09999 2.87259 6.09999H2.84942C1.99999 6.09999 1.31275 5.83332 0.787645 5.29999C0.262541 4.76666 0 4.09595 0 3.28787ZM0.301158 24.5V8.30605H5.44402V24.5H0.301158ZM8.29344 24.5H13.4363V15.4576C13.4363 14.8919 13.4981 14.4555 13.6216 14.1485C13.8378 13.599 14.166 13.1343 14.6062 12.7545C15.0463 12.3747 15.5984 12.1848 16.2625 12.1848C17.9923 12.1848 18.8571 13.405 18.8571 15.8454V24.5H24V15.2151C24 12.8232 23.4595 11.0091 22.3784 9.77271C21.2973 8.53635 19.8687 7.91817 18.0927 7.91817C16.1004 7.91817 14.5483 8.81514 13.4363 10.6091V10.6576H13.4131L13.4363 10.6091V8.30605H8.29344C8.32432 8.82321 8.33977 10.4313 8.33977 13.1303C8.33977 15.8293 8.32432 19.6191 8.29344 24.5Z" fill="#006B4F"/>
</g>
<defs>
<clipPath id="clip0_65_3903">
<rect width="24" height="24" fill="white" transform="translate(0 0.5)"/>
</clipPath>
</defs>
</svg>
