<svg width="40" height="40" viewBox="0 0 40 40" fill="none" xmlns="http://www.w3.org/2000/svg">
<rect width="40" height="40" rx="10" fill="#006B4F"/>
<path d="M20 28.125C23.125 23.75 25.625 20 25.625 17.5C25.625 16.0082 25.0324 14.5774 23.9775 13.5225C22.9226 12.4676 21.4918 11.875 20 11.875C18.5082 11.875 17.0774 12.4676 16.0225 13.5225C14.9676 14.5774 14.375 16.0082 14.375 17.5C14.375 20 16.875 23.75 20 28.125Z" stroke="white"/>
<path d="M22.5 17.5C22.5 18.163 22.2366 18.7989 21.7678 19.2678C21.2989 19.7366 20.663 20 20 20C19.337 20 18.7011 19.7366 18.2322 19.2678C17.7634 18.7989 17.5 18.163 17.5 17.5C17.5 16.837 17.7634 16.2011 18.2322 15.7322C18.7011 15.2634 19.337 15 20 15C20.663 15 21.2989 15.2634 21.7678 15.7322C22.2366 16.2011 22.5 16.837 22.5 17.5Z" stroke="white"/>
</svg>
