<svg width="20" height="27" viewBox="0 0 20 27" fill="none" xmlns="http://www.w3.org/2000/svg">
<path fill-rule="evenodd" clip-rule="evenodd" d="M10.3088 24.2113C11.7464 22.9067 13.0769 21.4888 14.2875 19.9712C16.8375 16.7675 18.3888 13.6087 18.4937 10.8C18.5353 9.65849 18.3463 8.52032 17.9382 7.45348C17.53 6.38663 16.911 5.413 16.1181 4.59074C15.3252 3.76848 14.3748 3.11446 13.3235 2.66775C12.2722 2.22105 11.1416 1.99082 9.99938 1.99082C8.85711 1.99082 7.72657 2.22105 6.67527 2.66775C5.62398 3.11446 4.67351 3.76848 3.88063 4.59074C3.08776 5.413 2.46874 6.38663 2.06058 7.45348C1.65241 8.52032 1.46345 9.65849 1.505 10.8C1.61125 13.6087 3.16375 16.7675 5.7125 19.9712C6.92308 21.4888 8.25361 22.9067 9.69125 24.2113C9.82958 24.3363 9.9325 24.4271 10 24.4837L10.3088 24.2113ZM9.0775 25.6675C9.0775 25.6675 0 18.0225 0 10.5C0 7.84784 1.05357 5.3043 2.92893 3.42893C4.8043 1.55357 7.34784 0.5 10 0.5C12.6522 0.5 15.1957 1.55357 17.0711 3.42893C18.9464 5.3043 20 7.84784 20 10.5C20 18.0225 10.9225 25.6675 10.9225 25.6675C10.4175 26.1325 9.58625 26.1275 9.0775 25.6675ZM10 14C10.9283 14 11.8185 13.6313 12.4749 12.9749C13.1313 12.3185 13.5 11.4283 13.5 10.5C13.5 9.57174 13.1313 8.6815 12.4749 8.02513C11.8185 7.36875 10.9283 7 10 7C9.07174 7 8.1815 7.36875 7.52513 8.02513C6.86875 8.6815 6.5 9.57174 6.5 10.5C6.5 11.4283 6.86875 12.3185 7.52513 12.9749C8.1815 13.6313 9.07174 14 10 14ZM10 15.5C8.67392 15.5 7.40215 14.9732 6.46447 14.0355C5.52678 13.0979 5 11.8261 5 10.5C5 9.17392 5.52678 7.90215 6.46447 6.96447C7.40215 6.02678 8.67392 5.5 10 5.5C11.3261 5.5 12.5979 6.02678 13.5355 6.96447C14.4732 7.90215 15 9.17392 15 10.5C15 11.8261 14.4732 13.0979 13.5355 14.0355C12.5979 14.9732 11.3261 15.5 10 15.5Z" fill="#25D366"/>
</svg>
