<svg width="23" height="37" viewBox="0 0 23 37" fill="none" xmlns="http://www.w3.org/2000/svg">
<path fill-rule="evenodd" clip-rule="evenodd" d="M5.49993 0.734795C5.49993 0.753895 5.57863 0.922595 5.67493 1.1098C5.83593 1.423 5.84993 1.937 5.84993 7.55019V13.6502L5.48903 14.3502C5.07533 15.1525 4.75673 16.0872 4.60503 16.9436C4.47003 17.706 4.47003 19.3944 4.60503 20.1568C5.19113 23.466 7.48823 26.0901 10.3873 26.7625C10.7512 26.8469 11.0645 26.9315 11.0834 26.9504C11.115 26.982 8.46453 33.7926 8.31163 34.0728C8.27483 34.1402 7.19173 31.5077 5.90483 28.2228C2.75123 20.1734 2.87933 20.5225 2.87803 19.9752L2.87683 19.5002H1.78063H0.684326L1.02753 19.9011C1.45023 20.3949 1.32713 20.0999 4.55083 28.3502C6.01223 32.0902 7.31473 35.4202 7.44543 35.7502C7.59703 36.1332 7.70473 36.2959 7.74313 36.2002C7.77623 36.1177 8.60593 34.0027 9.58713 31.5002L11.3709 26.9502L11.8699 26.9267L12.3689 26.9032L13.5498 29.9267C14.1993 31.5896 15.0201 33.6927 15.3738 34.6002C15.7275 35.5077 16.0308 36.2642 16.0478 36.2813C16.0648 36.2984 16.3937 35.5109 16.7786 34.5313C17.1635 33.5517 18.5464 30.0277 19.8517 26.7002C21.4269 22.6845 22.3526 20.4569 22.6048 20.0752L22.9847 19.5002H22.4904C22.0168 19.5002 21.9986 19.5104 22.0571 19.7433C22.0907 19.877 22.0424 20.2469 21.9498 20.5654C21.8009 21.0776 16.7449 34.0885 16.6629 34.1705C16.645 34.1884 15.9753 32.5262 15.1745 30.4766C13.7581 26.8511 13.7245 26.7477 13.9343 26.6595C16.0801 25.7564 17.4363 24.5254 18.3515 22.6502C19.0916 21.1339 19.2478 20.4147 19.2417 18.5502C19.2356 16.6709 19.0762 15.9373 18.3448 14.4238L17.8912 13.485L17.9205 7.46759C17.9469 2.0591 17.9671 1.4123 18.1198 1.0752L18.2897 0.700195H17.2056H16.1215L16.3107 1.0713C16.4863 1.4158 16.4999 1.7107 16.4999 5.17129V8.90019H11.8999H7.29993V5.19699C7.29993 2.1315 7.32573 1.432 7.44993 1.1348C7.53243 0.937295 7.59993 0.758795 7.59993 0.737995C7.59993 0.717195 7.12743 0.700195 6.54993 0.700195C5.97243 0.700195 5.49993 0.715795 5.49993 0.734795ZM7.29993 10.4976V11.8949L8.08513 11.3603C9.34863 10.4999 10.3848 10.1792 11.8999 10.1794C13.3872 10.1796 14.5326 10.5459 15.8249 11.4347L16.4999 11.8989V10.4995V9.10019H11.8999H7.29993V10.4976ZM10.4999 10.8278C9.34333 11.2235 8.65223 11.7303 7.76033 12.8367L7.28753 13.4232L7.31873 15.1867C7.34363 16.5945 7.38373 17.0158 7.51723 17.2752L7.68463 17.6002H6.84843H6.01223L5.94913 18.0252C5.85543 18.6566 6.05793 20.3328 6.34933 21.3384C7.06953 23.8236 8.59673 25.6201 10.4854 26.2038C10.835 26.3118 11.1764 26.4002 11.2442 26.4002C11.312 26.4002 11.4506 26.1554 11.5523 25.8562L11.7373 25.3121L10.9046 23.1812C9.97223 20.7949 9.72863 20.2685 9.34653 19.8145L9.08213 19.5002H10.1885H11.2949L11.2422 19.7752C11.1723 20.1401 11.3132 20.5751 12.4698 23.5648C13.2058 25.4674 13.4914 26.0988 13.6165 26.0994C13.7082 26.0998 14.1282 25.8694 14.5499 25.5873C15.5121 24.9438 16.2774 24.034 16.8523 22.8502C17.4913 21.5343 17.7112 20.6091 17.7733 18.9752L17.8255 17.6002H16.9676H16.1097L16.3026 17.1752C16.4675 16.8118 16.4958 16.5136 16.4977 15.1182L16.4999 13.4862L16.2085 13.0682C15.8094 12.4956 14.9521 11.6827 14.3499 11.3059C13.2103 10.5928 11.7255 10.4084 10.4999 10.8278ZM11.7228 26.0205C11.6279 26.272 11.6286 26.3566 11.7261 26.4185C12.0777 26.6418 12.2129 26.3664 11.9681 25.9257C11.8441 25.7024 11.8427 25.703 11.7228 26.0205Z" fill="white"/>
</svg>
