<svg width="23" height="37" viewBox="0 0 23 37" fill="none" xmlns="http://www.w3.org/2000/svg">
<path fill-rule="evenodd" clip-rule="evenodd" d="M5.50017 0.734795C5.50017 0.753895 5.57887 0.922595 5.67517 1.1098C5.83617 1.423 5.85017 1.937 5.85017 7.55019V13.6502L5.48927 14.3502C5.07557 15.1525 4.75697 16.0872 4.60527 16.9436C4.47027 17.706 4.47027 19.3944 4.60527 20.1568C5.19137 23.466 7.48847 26.0901 10.3876 26.7625C10.7515 26.8469 11.0648 26.9315 11.0837 26.9504C11.1153 26.982 8.46477 33.7926 8.31187 34.0728C8.27507 34.1402 7.19197 31.5077 5.90507 28.2228C2.75147 20.1734 2.87957 20.5225 2.87827 19.9752L2.87707 19.5002H1.78087H0.68457L1.02777 19.9011C1.45047 20.3949 1.32737 20.0999 4.55107 28.3502C6.01247 32.0902 7.31497 35.4202 7.44567 35.7502C7.59727 36.1332 7.70497 36.2959 7.74337 36.2002C7.77647 36.1177 8.60617 34.0027 9.58737 31.5002L11.3712 26.9502L11.8702 26.9267L12.3692 26.9032L13.5501 29.9267C14.1996 31.5896 15.0204 33.6927 15.3741 34.6002C15.7278 35.5077 16.0311 36.2642 16.0481 36.2813C16.0651 36.2984 16.394 35.5109 16.7789 34.5313C17.1638 33.5517 18.5467 30.0277 19.852 26.7002C21.4272 22.6845 22.3529 20.4569 22.6051 20.0752L22.985 19.5002H22.4907C22.0171 19.5002 21.9989 19.5104 22.0574 19.7433C22.091 19.877 22.0427 20.2469 21.9501 20.5654C21.8012 21.0776 16.7452 34.0885 16.6632 34.1705C16.6453 34.1884 15.9756 32.5262 15.1748 30.4766C13.7584 26.8511 13.7248 26.7477 13.9346 26.6595C16.0804 25.7564 17.4366 24.5254 18.3518 22.6502C19.0919 21.1339 19.2481 20.4147 19.242 18.5502C19.2359 16.6709 19.0765 15.9373 18.3451 14.4238L17.8915 13.485L17.9208 7.46759C17.9472 2.0591 17.9674 1.4123 18.1201 1.0752L18.29 0.700195H17.2059H16.1218L16.311 1.0713C16.4866 1.4158 16.5002 1.7107 16.5002 5.17129V8.90019H11.9002H7.30017V5.19699C7.30017 2.1315 7.32597 1.432 7.45017 1.1348C7.53267 0.937295 7.60017 0.758795 7.60017 0.737995C7.60017 0.717195 7.12767 0.700195 6.55017 0.700195C5.97267 0.700195 5.50017 0.715795 5.50017 0.734795ZM7.30017 10.4976V11.8949L8.08537 11.3603C9.34887 10.4999 10.3851 10.1792 11.9002 10.1794C13.3875 10.1796 14.5329 10.5459 15.8252 11.4347L16.5002 11.8989V10.4995V9.10019H11.9002H7.30017V10.4976ZM10.5002 10.8278C9.34357 11.2235 8.65247 11.7303 7.76057 12.8367L7.28777 13.4232L7.31897 15.1867C7.34387 16.5945 7.38397 17.0158 7.51747 17.2752L7.68487 17.6002H6.84867H6.01247L5.94937 18.0252C5.85567 18.6566 6.05817 20.3328 6.34957 21.3384C7.06977 23.8236 8.59697 25.6201 10.4857 26.2038C10.8353 26.3118 11.1767 26.4002 11.2445 26.4002C11.3123 26.4002 11.4509 26.1554 11.5526 25.8562L11.7376 25.3121L10.9049 23.1812C9.97247 20.7949 9.72887 20.2685 9.34677 19.8145L9.08237 19.5002H10.1888H11.2952L11.2425 19.7752C11.1726 20.1401 11.3135 20.5751 12.4701 23.5648C13.2061 25.4674 13.4917 26.0988 13.6168 26.0994C13.7085 26.0998 14.1285 25.8694 14.5502 25.5873C15.5124 24.9438 16.2777 24.034 16.8526 22.8502C17.4916 21.5343 17.7115 20.6091 17.7736 18.9752L17.8258 17.6002H16.9679H16.11L16.3029 17.1752C16.4678 16.8118 16.4961 16.5136 16.498 15.1182L16.5002 13.4862L16.2088 13.0682C15.8097 12.4956 14.9524 11.6827 14.3502 11.3059C13.2106 10.5928 11.7258 10.4084 10.5002 10.8278ZM11.7231 26.0205C11.6282 26.272 11.6289 26.3566 11.7264 26.4185C12.078 26.6418 12.2132 26.3664 11.9684 25.9257C11.8444 25.7024 11.843 25.703 11.7231 26.0205Z" fill="white"/>
</svg>
