<svg width="40" height="40" viewBox="0 0 40 40" fill="none" xmlns="http://www.w3.org/2000/svg">
<rect width="40" height="40" rx="10" fill="#25D366"/>
<path d="M25.7757 26.6663C24.3712 26.6663 22.9312 26.3147 21.4557 25.6113C19.9801 24.908 18.6068 23.9205 17.3357 22.6488C16.0745 21.3777 15.0923 20.0069 14.389 18.5363C13.6857 17.0658 13.334 15.6286 13.334 14.2247C13.334 13.9747 13.4173 13.7636 13.584 13.5913C13.7507 13.4191 13.959 13.333 14.209 13.333H16.2698C16.4965 13.333 16.6943 13.4044 16.8632 13.5472C17.032 13.69 17.1462 13.873 17.2057 14.0963L17.619 16.083C17.6579 16.3163 17.6509 16.52 17.5982 16.6938C17.5454 16.8677 17.4529 17.0102 17.3207 17.1213L15.4923 18.8263C15.8345 19.4469 16.2126 20.0236 16.6265 20.5563C17.0404 21.0891 17.482 21.5938 17.9515 22.0705C18.4348 22.5538 18.9554 23.0038 19.5132 23.4205C20.0709 23.8366 20.6832 24.2294 21.3498 24.5988L23.1323 22.7847C23.2679 22.6386 23.4204 22.5422 23.5898 22.4955C23.7587 22.4494 23.9459 22.4402 24.1515 22.468L25.904 22.8263C26.1307 22.8819 26.3145 22.9961 26.4557 23.1688C26.5968 23.3416 26.6673 23.5394 26.6673 23.7622V25.7913C26.6673 26.0413 26.5812 26.2497 26.409 26.4163C26.2368 26.583 26.0257 26.6663 25.7757 26.6663Z" fill="white"/>
</svg>
