<svg width="18" height="18" viewBox="0 0 18 18" fill="none" xmlns="http://www.w3.org/2000/svg">
<path d="M9 8.23121C7.96917 8.23121 7.08625 7.86371 6.35125 7.12871C5.61625 6.39371 5.24917 5.51121 5.25 4.48121C5.25083 3.45121 5.61792 2.56787 6.35125 1.83121C7.08458 1.09454 7.9675 0.72829 9 0.732457C10.0325 0.736624 10.9154 1.10329 11.6488 1.83246C12.3821 2.56162 12.7492 3.44496 12.75 4.48246C12.7508 5.51996 12.3838 6.40246 11.6488 7.12996C10.9138 7.85746 10.0308 8.22371 9 8.23121ZM0.25 15.9725V15.2125C0.25 14.6966 0.4 14.2141 0.7 13.765C1.00083 13.315 1.405 12.9658 1.9125 12.7175C3.0925 12.1516 4.27333 11.7275 5.455 11.445C6.63583 11.1616 7.8175 11.02 9 11.02C10.1825 11.02 11.3646 11.1616 12.5462 11.445C13.7279 11.7283 14.9079 12.1525 16.0863 12.7175C16.5946 12.9658 16.9988 13.315 17.2987 13.765C17.5996 14.2141 17.75 14.6966 17.75 15.2125V15.9725C17.75 16.3391 17.6254 16.6475 17.3763 16.8975C17.1271 17.1458 16.8188 17.27 16.4513 17.27H1.55C1.1825 17.27 0.874167 17.1454 0.625 16.8962C0.375834 16.647 0.250833 16.34 0.25 15.9725ZM1.5 16.02H16.5V15.2112C16.5 14.9345 16.4104 14.6741 16.2312 14.43C16.0529 14.1866 15.8058 13.9808 15.49 13.8125C14.4617 13.3141 13.4008 12.9325 12.3075 12.6675C11.2142 12.4025 10.1117 12.27 9 12.27C7.88833 12.27 6.78583 12.4025 5.6925 12.6675C4.59917 12.9325 3.53833 13.3141 2.51 13.8125C2.19333 13.9808 1.94625 14.1866 1.76875 14.43C1.58958 14.6741 1.5 14.935 1.5 15.2125V16.02ZM9 6.98121C9.6875 6.98121 10.2762 6.73621 10.7663 6.24621C11.2563 5.75621 11.5008 5.16746 11.5 4.47996C11.4992 3.79246 11.2546 3.20412 10.7663 2.71496C10.2779 2.22579 9.68917 1.98079 9 1.97996C8.31083 1.97912 7.7225 2.22412 7.235 2.71496C6.7475 3.20579 6.5025 3.79412 6.5 4.47996C6.4975 5.16579 6.7425 5.75454 7.235 6.24621C7.7275 6.73787 8.31583 6.98246 9 6.97996" fill="#25D366"/>
</svg>
