<svg width="44" height="44" viewBox="0 0 44 44" fill="none" xmlns="http://www.w3.org/2000/svg">
<rect width="44" height="44" rx="10" fill="#25D366"/>
<path d="M24.0008 20.0002L21.0008 23.0002M30.2888 13.0312C30.3837 12.9985 30.4859 12.9931 30.5837 13.0157C30.6815 13.0383 30.771 13.0879 30.8419 13.1589C30.9129 13.23 30.9624 13.3195 30.9848 13.4174C31.0073 13.5152 31.0017 13.6174 30.9688 13.7122L25.0448 30.6422C25.0094 30.7434 24.9443 30.8316 24.8581 30.8954C24.772 30.9592 24.6686 30.9956 24.5614 30.9999C24.4543 31.0042 24.3483 30.9763 24.2573 30.9196C24.1662 30.863 24.0943 30.7802 24.0508 30.6822L20.8318 23.4402C20.7777 23.3198 20.6813 23.2234 20.5608 23.1692L13.3188 19.9492C13.2211 19.9056 13.1388 19.8337 13.0823 19.7428C13.0259 19.6518 12.9981 19.5461 13.0024 19.4392C13.0067 19.3323 13.043 19.2291 13.1065 19.143C13.17 19.0569 13.2579 18.9918 13.3588 18.9562L30.2888 13.0312Z" stroke="white" stroke-width="1.5" stroke-linecap="round" stroke-linejoin="round"/>
</svg>
