<svg width="71" height="70" viewBox="0 0 71 70" fill="none" xmlns="http://www.w3.org/2000/svg">
<rect x="0.5" width="70" height="70" rx="12" fill="white"/>
<path d="M48.352 42.2362L46.504 42.5272L45.655 40.8622C45.595 40.7452 45.469 40.6822 45.34 40.7032C45.211 40.7242 45.112 40.8232 45.091 40.9522L44.797 42.8002L42.949 43.0942C42.82 43.1152 42.721 43.2142 42.7 43.3432C42.679 43.4722 42.745 43.5982 42.859 43.6582L44.524 44.5072L44.233 46.3552C44.212 46.4842 44.278 46.6102 44.392 46.6702C44.434 46.6912 44.482 46.7032 44.527 46.7032C44.605 46.7032 44.68 46.6732 44.74 46.6162L46.063 45.2932L47.728 46.1422C47.845 46.2022 47.983 46.1782 48.076 46.0882C48.169 45.9982 48.19 45.8542 48.13 45.7402L47.281 44.0752L48.604 42.7522C48.697 42.6592 48.718 42.5182 48.658 42.4042C48.598 42.2872 48.475 42.2242 48.343 42.2452L48.352 42.2362ZM46.711 43.7992C46.618 43.8922 46.597 44.0332 46.657 44.1472L47.185 45.1852L46.147 44.6572C46.03 44.5972 45.892 44.6212 45.799 44.7112L44.974 45.5362L45.157 44.3842C45.178 44.2552 45.112 44.1292 44.998 44.0692L43.96 43.5412L45.112 43.3582C45.241 43.3372 45.34 43.2382 45.361 43.1092L45.544 41.9572L46.072 42.9952C46.132 43.1122 46.258 43.1782 46.387 43.1542L47.539 42.9712L46.714 43.7962L46.711 43.7992ZM35.287 35.2132C35.17 35.0962 35.17 34.9072 35.287 34.7902L36.961 33.1162C37.078 32.9992 37.267 32.9992 37.384 33.1162C37.501 33.2332 37.501 33.4222 37.384 33.5392L35.71 35.2132C35.65 35.2732 35.575 35.3002 35.497 35.3002C35.419 35.3002 35.344 35.2702 35.284 35.2132H35.287ZM21.598 25.2112L23.446 24.9172L24.295 26.5822C24.346 26.6842 24.451 26.7472 24.562 26.7472C24.577 26.7472 24.592 26.7472 24.61 26.7442C24.739 26.7232 24.838 26.6242 24.859 26.4952L25.153 24.6472L27.001 24.3532C27.13 24.3322 27.229 24.2332 27.25 24.1042C27.271 23.9752 27.205 23.8492 27.091 23.7892L25.426 22.9402L25.717 21.0922C25.738 20.9632 25.672 20.8372 25.558 20.7772C25.441 20.7172 25.303 20.7412 25.21 20.8312L23.887 22.1542L22.222 21.3052C22.105 21.2452 21.967 21.2692 21.874 21.3592C21.781 21.4522 21.76 21.5902 21.82 21.7072L22.669 23.3722L21.346 24.6952C21.253 24.7882 21.232 24.9262 21.292 25.0432C21.352 25.1602 21.478 25.2232 21.607 25.2022L21.598 25.2112ZM23.239 23.6512C23.332 23.5582 23.353 23.4202 23.293 23.3032L22.765 22.2652L23.803 22.7932C23.92 22.8532 24.058 22.8292 24.151 22.7392L24.976 21.9142L24.793 23.0662C24.772 23.1952 24.838 23.3212 24.952 23.3812L25.99 23.9092L24.841 24.0922C24.712 24.1132 24.613 24.2122 24.592 24.3412L24.409 25.4932L23.881 24.4552C23.83 24.3532 23.725 24.2902 23.614 24.2902C23.599 24.2902 23.584 24.2902 23.566 24.2932L22.414 24.4762L23.239 23.6512ZM30.199 26.7322L29.614 27.8812C29.554 27.9982 29.578 28.1362 29.668 28.2292C29.761 28.3222 29.902 28.3432 30.016 28.2832L31.165 27.6982L32.077 28.6102C32.134 28.6672 32.212 28.6972 32.29 28.6972C32.335 28.6972 32.383 28.6852 32.425 28.6642C32.542 28.6042 32.605 28.4782 32.584 28.3492L32.383 27.0742L33.532 26.4892C33.649 26.4292 33.712 26.3032 33.691 26.1742C33.67 26.0452 33.571 25.9462 33.442 25.9252L32.167 25.7242L31.966 24.4492C31.945 24.3202 31.846 24.2212 31.717 24.2002C31.588 24.1792 31.462 24.2452 31.402 24.3592L30.817 25.5082L29.542 25.3072C29.413 25.2862 29.287 25.3522 29.227 25.4662C29.167 25.5832 29.191 25.7212 29.281 25.8142L30.193 26.7262L30.199 26.7322ZM30.943 26.1412C31.072 26.1622 31.198 26.0962 31.258 25.9822L31.525 25.4602L31.615 26.0362C31.636 26.1652 31.735 26.2642 31.864 26.2852L32.443 26.3782L31.921 26.6452C31.804 26.7052 31.741 26.8312 31.762 26.9602L31.852 27.5392L31.438 27.1252C31.381 27.0682 31.303 27.0382 31.225 27.0382C31.18 27.0382 31.132 27.0502 31.09 27.0712L30.568 27.3382L30.832 26.8162C30.892 26.6992 30.868 26.5612 30.778 26.4682L30.364 26.0542L30.943 26.1472V26.1412ZM33.805 33.6052V32.2102C33.805 32.0452 33.94 31.9102 34.105 31.9102C34.27 31.9102 34.405 32.0452 34.405 32.2102V33.6052C34.405 33.7702 34.27 33.9052 34.105 33.9052C33.94 33.9052 33.805 33.7702 33.805 33.6052ZM49.75 26.9782C49.75 23.5432 46.957 20.7502 43.522 20.7502C40.087 20.7502 37.294 23.5432 37.294 26.9782C37.294 27.9082 37.495 28.7992 37.888 29.6332V32.3152C37.888 32.4802 38.023 32.6152 38.188 32.6152H40.87C41.704 33.0082 42.595 33.2092 43.525 33.2092C46.96 33.2092 49.753 30.4162 49.753 26.9812L49.75 26.9782ZM40.936 32.0152H38.485V29.5672C38.485 29.5222 38.476 29.4772 38.455 29.4352C38.08 28.6672 37.891 27.8392 37.891 26.9812C37.891 23.8762 40.417 21.3532 43.519 21.3532C46.621 21.3532 49.147 23.8792 49.147 26.9812C49.147 30.0832 46.621 32.6092 43.519 32.6092C42.658 32.6092 41.833 32.4202 41.065 32.0452C41.023 32.0242 40.978 32.0152 40.933 32.0152H40.936ZM38.59 36.3952C38.59 36.5602 38.455 36.6952 38.29 36.6952H36.895C36.73 36.6952 36.595 36.5602 36.595 36.3952C36.595 36.2302 36.73 36.0952 36.895 36.0952H38.29C38.455 36.0952 38.59 36.2302 38.59 36.3952ZM40.885 26.0212C40.357 26.0212 39.925 26.4502 39.925 26.9812C39.925 27.5122 40.354 27.9412 40.885 27.9412C41.416 27.9412 41.845 27.5122 41.845 26.9812C41.845 26.4502 41.416 26.0212 40.885 26.0212ZM40.885 27.3382C40.687 27.3382 40.525 27.1762 40.525 26.9782C40.525 26.7802 40.687 26.6182 40.885 26.6182C41.083 26.6182 41.245 26.7802 41.245 26.9782C41.245 27.1762 41.083 27.3382 40.885 27.3382ZM44.479 26.9782C44.479 26.4502 44.05 26.0182 43.519 26.0182C42.988 26.0182 42.559 26.4472 42.559 26.9782C42.559 27.5092 42.988 27.9382 43.519 27.9382C44.05 27.9382 44.479 27.5092 44.479 26.9782ZM43.162 26.9782C43.162 26.7802 43.324 26.6182 43.522 26.6182C43.72 26.6182 43.882 26.7802 43.882 26.9782C43.882 27.1762 43.72 27.3382 43.522 27.3382C43.324 27.3382 43.162 27.1762 43.162 26.9782ZM34.975 35.5252C31.936 32.4862 28.549 31.1152 27.262 32.4022C26.749 32.9152 26.644 33.7702 26.941 34.8442C26.398 38.4952 24.664 41.9392 22.057 44.5492C21.538 45.0682 21.25 45.7612 21.25 46.4962C21.25 47.2312 21.538 47.9242 22.057 48.4432C22.594 48.9802 23.299 49.2472 24.004 49.2472C24.709 49.2472 25.414 48.9802 25.951 48.4432C25.999 48.3952 26.047 48.3532 26.095 48.3052C26.506 48.7792 27.064 49.0972 27.691 49.2082C27.853 49.2382 28.015 49.2502 28.174 49.2502C28.735 49.2502 29.281 49.0792 29.749 48.7522C30.352 48.3292 30.754 47.6992 30.883 46.9732C30.994 46.3402 30.883 45.7012 30.574 45.1492C32.176 44.3632 33.898 43.8172 35.668 43.5562C36.058 43.6612 36.424 43.7182 36.754 43.7182C37.312 43.7182 37.774 43.5622 38.101 43.2352C38.749 42.5872 38.755 41.4052 38.113 39.9082C37.507 38.4982 36.394 36.9412 34.978 35.5222L34.975 35.5252ZM30.292 46.8682C30.193 47.4352 29.878 47.9302 29.407 48.2572C28.936 48.5872 28.363 48.7132 27.796 48.6142C27.298 48.5272 26.854 48.2722 26.53 47.8912C27.592 46.9252 28.774 46.0972 30.037 45.4222C30.289 45.8602 30.379 46.3642 30.292 46.8682ZM25.528 48.0172C24.688 48.8572 23.32 48.8572 22.48 48.0172C22.072 47.6092 21.85 47.0692 21.85 46.4932C21.85 45.9172 22.075 45.3772 22.48 44.9692C24.937 42.5122 26.641 39.3382 27.352 35.9392C27.973 37.2922 29.041 38.7622 30.388 40.1092C31.783 41.5042 33.253 42.5482 34.558 43.1452C31.159 43.8562 27.985 45.5572 25.528 48.0172ZM29.719 38.4922C30.361 38.0932 31.216 38.1682 31.774 38.7232C32.332 39.2812 32.407 40.1392 32.005 40.7812C31.609 40.4512 31.21 40.0882 30.811 39.6892C30.421 39.2992 30.058 38.8972 29.719 38.4922ZM37.675 42.8122C37.315 43.1692 36.628 43.2172 35.746 42.9622C35.743 42.9622 35.74 42.9622 35.737 42.9592C34.816 42.6922 33.682 42.0952 32.479 41.1622C33.07 40.2832 32.98 39.0772 32.203 38.3002C31.426 37.5232 30.223 37.4302 29.344 38.0212C28.681 37.1632 28.153 36.3022 27.808 35.4922C27.277 34.2532 27.235 33.2812 27.691 32.8252C27.901 32.6152 28.222 32.5102 28.63 32.5102C29.977 32.5102 32.263 33.6562 34.555 35.9482C35.92 37.3132 36.988 38.8042 37.564 40.1452C38.095 41.3842 38.137 42.3562 37.681 42.8122H37.675ZM46.156 27.9382C46.684 27.9382 47.116 27.5092 47.116 26.9782C47.116 26.4472 46.687 26.0182 46.156 26.0182C45.625 26.0182 45.196 26.4472 45.196 26.9782C45.196 27.5092 45.625 27.9382 46.156 27.9382ZM46.156 26.6212C46.354 26.6212 46.516 26.7832 46.516 26.9812C46.516 27.1792 46.354 27.3412 46.156 27.3412C45.958 27.3412 45.796 27.1792 45.796 26.9812C45.796 26.7832 45.958 26.6212 46.156 26.6212Z" fill="#25D366"/>
</svg>
