<svg width="70" height="70" viewBox="0 0 70 70" fill="none" xmlns="http://www.w3.org/2000/svg">
<rect width="70" height="70" rx="12" fill="white"/>
<path d="M38.125 33.125L32.4175 35L31.25 33.8325L36.415 29.375H38.75L42.5 31.25L45.625 31.875V40L43.125 40.625H37.3425" stroke="#006B4F" stroke-miterlimit="10" stroke-linecap="round" stroke-linejoin="round"/>
<path d="M24.375 38.75L27.6213 39.375L32.5612 44.3138L34.6975 43.9462L35.065 41.81L37.2012 41.4412L37.57 39.305L39.705 38.9375L40.0738 36.8012L36.825 33.5525M34.3925 31.12L32.0225 28.75L27.5 30.625L24.375 31.25M24.375 29.375H20.625V40.625H24.375V29.375ZM49.375 30.625H45.625V41.875H49.375V30.625Z" stroke="#006B4F" stroke-miterlimit="10" stroke-linejoin="round"/>
</svg>
