<svg width="70" height="70" viewBox="0 0 70 70" fill="none" xmlns="http://www.w3.org/2000/svg">
<rect width="70" height="70" rx="12" fill="#25D366"/>
<path fill-rule="evenodd" clip-rule="evenodd" d="M26.9065 43.1254H23.1249C22.6276 43.1254 22.1507 42.9271 21.7986 42.5754C21.4481 42.2254 21.2507 41.7471 21.2507 41.2504V39.2221C21.2507 36.8904 23.1407 35.0004 25.4712 35.0004H28.2786C30.0265 35.0004 31.525 36.0621 32.166 37.5754C32.4818 37.5254 32.8055 37.5004 33.1355 37.5004H36.865C37.195 37.5004 37.5186 37.5254 37.8344 37.5754C38.4755 36.0621 39.9739 35.0004 41.7218 35.0004H44.5292C44.9776 35.0004 45.4102 35.0704 45.816 35.2004C46.1445 35.3054 46.326 35.6571 46.2202 35.9854C46.116 36.3138 45.7639 36.4954 45.4355 36.3904C45.1497 36.2988 44.845 36.2504 44.5292 36.2504H41.7218C40.5565 36.2504 39.5476 36.9204 39.0613 37.8971C40.855 38.5688 42.2571 40.0388 42.8365 41.8754H46.8755C47.0413 41.8754 47.2008 41.8088 47.3176 41.6921C47.4344 41.5754 47.5008 41.4154 47.5008 41.2504V39.2221C47.5008 38.6004 47.3097 38.0238 46.9844 37.5471C46.7902 37.2621 46.8629 36.8738 47.1471 36.6788C47.4329 36.4838 47.8213 36.5571 48.0155 36.8421C48.4797 37.5204 48.7497 38.3388 48.7497 39.2221V41.2504C48.7497 41.7471 48.5523 42.2254 48.2018 42.5754C47.8497 42.9271 47.3729 43.1254 46.8755 43.1254H43.0939C43.1145 43.3338 43.1255 43.5454 43.1255 43.7604V46.8754C43.1255 47.3721 42.9281 47.8504 42.576 48.2004C42.2239 48.5521 41.7471 48.7505 41.2497 48.7505H33.1244C32.7802 48.7505 32.5008 48.4705 32.5008 48.1255C32.5008 47.7805 32.7802 47.5005 33.126 47.5005H41.2497C41.4155 47.5005 41.575 47.4338 41.6918 47.3171C41.8087 47.2004 41.875 47.0404 41.875 46.8754V43.7604C41.875 43.3754 41.8323 43.0004 41.7502 42.6404C41.3318 40.8088 39.9092 39.3588 38.0934 38.9021C37.7002 38.8021 37.2881 38.7504 36.865 38.7504H33.1355C32.7123 38.7504 32.3002 38.8021 31.9071 38.9021C30.0913 39.3588 28.6686 40.8088 28.2502 42.6404C28.1681 43.0004 28.1255 43.3754 28.1255 43.7604V46.8754C28.1255 47.0404 28.1918 47.2004 28.3086 47.3171C28.4255 47.4338 28.585 47.5005 28.7507 47.5005H29.376C29.7202 47.5005 29.9997 47.7805 29.9997 48.1255C29.9997 48.4705 29.7202 48.7505 29.3744 48.7505H28.7507C28.2534 48.7505 27.7765 48.5521 27.4244 48.2004C27.0723 47.8504 26.8749 47.3721 26.8749 46.8754V43.7604C26.8749 43.5454 26.886 43.3338 26.9065 43.1254ZM30.9391 37.8971C30.4528 36.9204 29.4439 36.2504 28.2786 36.2504H25.4712C23.8307 36.2504 22.4997 37.5804 22.4997 39.2221V41.2504C22.4997 41.4154 22.566 41.5754 22.6828 41.6921C22.7997 41.8088 22.9592 41.8754 23.1249 41.8754H27.1639C27.7434 40.0388 29.1455 38.5688 30.9391 37.8971ZM31.2502 47.5005C31.5944 47.5005 31.8755 47.7805 31.8755 48.1255C31.8755 48.4705 31.5944 48.7505 31.2502 48.7505C30.906 48.7505 30.625 48.4705 30.625 48.1255C30.625 47.7805 30.906 47.5005 31.2502 47.5005ZM34.9892 28.7504C37.0592 28.7504 38.7392 30.4304 38.7392 32.5004C38.7392 34.5704 37.0592 36.2504 34.9892 36.2504C32.9192 36.2504 31.2392 34.5704 31.2392 32.5004C31.2392 30.4304 32.9192 28.7504 34.9892 28.7504ZM34.9892 30.0004C33.6092 30.0004 32.4897 31.1204 32.4897 32.5004C32.4897 33.8804 33.6092 35.0004 34.9892 35.0004C36.3692 35.0004 37.4886 33.8804 37.4886 32.5004C37.4886 31.1204 36.3692 30.0004 34.9892 30.0004ZM43.1145 27.5004C44.8387 27.5004 46.2392 28.9004 46.2392 30.6254C46.2392 32.3504 44.8387 33.7504 43.1145 33.7504C41.3902 33.7504 39.9897 32.3504 39.9897 30.6254C39.9897 28.9004 41.3902 27.5004 43.1145 27.5004ZM43.1145 28.7504C42.0787 28.7504 41.2387 29.5904 41.2387 30.6254C41.2387 31.6604 42.0787 32.5004 43.1145 32.5004C44.1487 32.5004 44.9887 31.6604 44.9887 30.6254C44.9887 29.5904 44.1487 28.7504 43.1145 28.7504ZM26.886 27.5004C28.6102 27.5004 30.0107 28.9004 30.0107 30.6254C30.0107 32.3504 28.6102 33.7504 26.886 33.7504C25.1618 33.7504 23.7613 32.3504 23.7613 30.6254C23.7613 28.9004 25.1618 27.5004 26.886 27.5004ZM26.886 28.7504C25.8518 28.7504 25.0118 29.5904 25.0118 30.6254C25.0118 31.6604 25.8518 32.5004 26.886 32.5004C27.9218 32.5004 28.7618 31.6604 28.7618 30.6254C28.7618 29.5904 27.9218 28.7504 26.886 28.7504ZM38.8497 26.6488C38.6792 27.1571 38.2023 27.5004 37.6655 27.5004H32.3349C31.7981 27.5004 31.3213 27.1571 31.1507 26.6488L30.0328 23.3254C29.9602 23.1088 30.0107 22.8688 30.1655 22.7021C30.3218 22.5338 30.5555 22.4638 30.7765 22.5188L32.9334 23.0587L34.5581 21.4338C34.8029 21.1887 35.1976 21.1887 35.4423 21.4338L37.0671 23.0587L39.2239 22.5188C39.445 22.4638 39.6786 22.5338 39.835 22.7021C39.9897 22.8688 40.0402 23.1088 39.9676 23.3254L38.8497 26.6488ZM32.3349 26.2504H37.6655L38.4186 24.0088L37.0276 24.3571C36.8144 24.4104 36.5886 24.3471 36.4339 24.1921L35.0002 22.7588L33.5665 24.1921C33.4118 24.3471 33.186 24.4104 32.9729 24.3571L31.5818 24.0088L32.3349 26.2504Z" fill="white"/>
</svg>
