<svg width="70" height="70" viewBox="0 0 70 70" fill="none" xmlns="http://www.w3.org/2000/svg">
<rect width="70" height="70" rx="12" fill="#25D366"/>
<path d="M24.1401 46.5199H45.8601C46.2201 46.5199 46.5201 46.2199 46.5201 45.8599V44.2399H23.4801V45.8599C23.4801 46.2799 23.7801 46.5199 24.1401 46.5199ZM47.6001 27.3199C46.5801 27.3199 45.8001 28.0999 45.8001 29.1199C45.8001 29.5999 45.9801 30.0799 46.3401 30.3799L40.9401 35.8999L35.8401 26.7799C36.3801 26.4799 36.7401 25.8799 36.7401 25.2199C36.7401 24.1999 35.9601 23.4199 34.9401 23.4199C33.9201 23.4199 33.1401 24.1999 33.1401 25.2199C33.1401 25.8799 33.5001 26.4799 34.0401 26.7799L28.9401 35.8999L23.5401 30.3799C24.0201 30.0799 24.2001 29.5999 24.2001 29.1199C24.2001 28.0999 23.4201 27.3199 22.4001 27.3199C21.3801 27.3199 20.6001 28.0999 20.6001 29.1199C20.6001 30.1399 21.3801 30.9199 22.4001 30.9199C22.4601 30.9199 22.5201 30.9199 22.5201 30.9199L23.4801 43.1599H46.5201L47.4801 30.9199C47.5401 30.9199 47.6001 30.9199 47.6001 30.9199C48.6201 30.9199 49.4001 30.1399 49.4001 29.1199C49.4001 28.1599 48.6201 27.3199 47.6001 27.3199Z" fill="white"/>
</svg>
