<svg width="26" height="26" viewBox="0 0 26 26" fill="none" xmlns="http://www.w3.org/2000/svg">
<path d="M24.5 2.75H23.25V1.5C23.25 0.809125 22.6903 0.25 22 0.25C21.3097 0.25 20.75 0.809125 20.75 1.5V3.39687C20.0578 3.91363 19.3899 4.4545 18.7411 5.01475C16.8598 3.59963 14.53 2.75 12 2.75C5.797 2.75 0.75 7.79637 0.75 14C0.75 20.2036 5.797 25.25 12 25.25C18.203 25.25 23.25 20.2036 23.25 14C23.25 11.4699 22.4004 9.14013 20.9853 7.25887C21.5455 6.61013 22.0864 5.94225 22.6031 5.25H24.5C25.1903 5.25 25.75 4.69088 25.75 4C25.75 3.30912 25.1903 2.75 24.5 2.75ZM20.75 14C20.75 18.8242 16.8249 22.75 12 22.75C7.17513 22.75 3.25 18.8242 3.25 14C3.25 9.17575 7.17513 5.25 12 5.25C13.7946 5.25 15.4636 5.79462 16.8536 6.72512C16.49 7.071 16.1284 7.41887 15.7709 7.77087C15.5132 8.0295 15.2607 8.29313 15.0066 8.55513C14.1105 8.058 13.0954 7.75 12 7.75C8.554 7.75 5.75 10.554 5.75 14C5.75 17.446 8.554 20.25 12 20.25C15.446 20.25 18.25 17.446 18.25 14C18.25 12.9046 17.942 11.8895 17.4448 10.9934C17.7069 10.7393 17.9705 10.4868 18.229 10.2291C18.581 9.87162 18.9289 9.51 19.2747 9.14625C20.2054 10.5364 20.75 12.2055 20.75 14ZM15.75 14C15.75 16.0679 14.0679 17.75 12 17.75C9.93213 17.75 8.25 16.0679 8.25 14C8.25 11.9321 9.93213 10.25 12 10.25C12.4323 10.25 12.8411 10.3383 13.2279 10.4734C12.4872 11.3176 11.7761 12.1914 11.1161 13.1161C10.8116 13.5443 10.7937 14.1369 11.1161 14.5885C11.5227 15.1581 12.3141 15.2904 12.8839 14.8839C13.8086 14.2239 14.6824 13.5128 15.5266 12.7721C15.6617 13.1589 15.75 13.5677 15.75 14Z" fill="#25D366"/>
</svg>
