<svg width="70" height="70" viewBox="0 0 70 70" fill="none" xmlns="http://www.w3.org/2000/svg">
<rect width="70" height="70" rx="12" fill="#006B4F"/>
<g clip-path="url(#clip0_51_991)">
<path fill-rule="evenodd" clip-rule="evenodd" d="M38.2708 42.3724L37.8162 45.5986C37.8076 45.6596 37.8111 45.7217 37.8265 45.7814C37.8418 45.841 37.8688 45.8971 37.9058 45.9463C37.9428 45.9956 37.9892 46.037 38.0423 46.0684C38.0954 46.0997 38.1541 46.1202 38.2151 46.1289C38.2762 46.1375 38.3383 46.1341 38.398 46.1187C38.4578 46.1034 38.5138 46.0764 38.5631 46.0394C38.6124 46.0024 38.6539 45.9561 38.6853 45.903C38.7166 45.85 38.7371 45.7913 38.7458 45.7303L39.2009 42.5023C39.3211 41.6485 39.7095 40.8548 40.3086 40.2411L42.5775 37.9184C42.6337 37.8607 42.6742 37.7895 42.6949 37.7116L43.568 34.4556C43.6956 33.9798 44.1598 33.707 44.6155 33.823L44.9629 33.9103C45.4098 34.024 45.6766 34.48 45.5514 34.9469L44.2209 39.9085C44.2021 39.9688 44.1957 40.0322 44.2021 40.095C44.2085 40.1578 44.2276 40.2187 44.258 40.274C44.2885 40.3293 44.3298 40.3778 44.3795 40.4167C44.4292 40.4557 44.4864 40.4842 44.5474 40.5005C44.6084 40.5168 44.6721 40.5207 44.7346 40.5118C44.7972 40.503 44.8573 40.4816 44.9114 40.4489C44.9655 40.4163 45.0124 40.3731 45.0494 40.3219C45.0863 40.2707 45.1125 40.2125 45.1264 40.151L46.457 35.1894C46.712 34.2381 46.1462 33.2447 45.195 33.0027L44.8463 32.9131C43.8941 32.6707 42.9179 33.2607 42.6625 34.2132L41.821 37.351L39.6379 39.587C38.8982 40.3443 38.4188 41.3214 38.2708 42.3724Z" fill="white"/>
<path fill-rule="evenodd" clip-rule="evenodd" d="M44.4737 27.0795C44.2135 27.4333 44.0843 27.8806 44.1441 28.3448L44.5663 33.3389C44.5715 33.4003 44.5889 33.46 44.6173 33.5147C44.6456 33.5694 44.6844 33.6179 44.7316 33.6576C44.7788 33.6972 44.8334 33.7272 44.8921 33.7459C44.9509 33.7645 45.0127 33.7713 45.0742 33.766C45.1356 33.7608 45.1953 33.7434 45.2501 33.7151C45.3048 33.6867 45.3534 33.6479 45.393 33.6007C45.4327 33.5536 45.4628 33.4991 45.4814 33.4404C45.5001 33.3817 45.5069 33.3199 45.5016 33.2585L45.0757 28.2501C45.0744 28.2434 45.073 28.2367 45.0714 28.2301C45.0148 27.7845 45.3072 27.3869 45.7626 27.296L45.7631 27.2942C45.7664 27.2939 45.7698 27.2935 45.7731 27.2931C46.2785 27.1945 46.7612 27.5271 46.8428 28.0162L48.0265 35.116C48.3261 36.9102 47.8964 38.708 47.1261 40.4215L44.1027 47.1454C44.0774 47.2016 44.0634 47.2622 44.0616 47.3237C44.0598 47.3853 44.0702 47.4466 44.0921 47.5042C44.114 47.5617 44.1469 47.6144 44.1892 47.6592C44.2315 47.704 44.2823 47.7401 44.3385 47.7653C44.3947 47.7906 44.4553 47.8045 44.5169 47.8063C44.5785 47.8081 44.6399 47.7978 44.6975 47.7759C44.7551 47.754 44.8078 47.721 44.8527 47.6787C44.8975 47.6365 44.9336 47.5858 44.9589 47.5296L47.9823 40.8057C48.7998 38.9875 49.2912 37 48.9513 34.9628L47.768 27.8612C47.5992 26.8499 46.6047 26.1766 45.594 26.3736L45.6393 26.3669C45.6209 26.3678 45.6026 26.3699 45.5844 26.373C45.1222 26.4624 44.7311 26.7236 44.4702 27.0785L44.4737 27.0795Z" fill="white"/>
<path fill-rule="evenodd" clip-rule="evenodd" d="M31.7294 42.3724L32.184 45.5986C32.1927 45.6596 32.1891 45.7217 32.1738 45.7814C32.1584 45.841 32.1315 45.8971 32.0944 45.9463C32.0574 45.9956 32.011 46.037 31.958 46.0684C31.9049 46.0997 31.8462 46.1202 31.7851 46.1289C31.7241 46.1375 31.6619 46.1341 31.6022 46.1187C31.5425 46.1034 31.4864 46.0764 31.4371 46.0394C31.3879 46.0024 31.3463 45.9561 31.315 45.903C31.2836 45.85 31.2631 45.7913 31.2544 45.7303L30.7994 42.5023C30.6792 41.6485 30.2907 40.8548 29.6916 40.2411L27.4228 37.9184C27.3665 37.8607 27.3261 37.7895 27.3054 37.7116L26.4322 34.4556C26.3046 33.9798 25.8405 33.707 25.3847 33.823L25.0373 33.9103C24.5905 34.024 24.3236 34.48 24.4488 34.9469L25.7793 39.9085C25.7981 39.9688 25.8045 40.0322 25.7981 40.095C25.7918 40.1578 25.7727 40.2187 25.7422 40.274C25.7117 40.3293 25.6705 40.3778 25.6207 40.4167C25.571 40.4557 25.5138 40.4842 25.4528 40.5005C25.3918 40.5168 25.3281 40.5207 25.2656 40.5118C25.203 40.503 25.1429 40.4816 25.0889 40.4489C25.0348 40.4163 24.9878 40.3731 24.9509 40.3219C24.9139 40.2707 24.8877 40.2125 24.8738 40.151L23.5433 35.1894C23.2882 34.2381 23.8541 33.2447 24.8053 33.0027L25.154 32.9131C26.1062 32.6707 27.0824 33.2607 27.3378 34.2132L28.1792 37.351L30.3624 39.587C31.102 40.3443 31.5814 41.3214 31.7294 42.3724Z" fill="white"/>
<path fill-rule="evenodd" clip-rule="evenodd" d="M25.5265 27.0795C25.7868 27.4333 25.916 27.8806 25.8561 28.3448L25.434 33.3389C25.4287 33.4003 25.4114 33.46 25.383 33.5147C25.3546 33.5694 25.3158 33.6179 25.2686 33.6576C25.2215 33.6972 25.1669 33.7272 25.1081 33.7459C25.0493 33.7645 24.9875 33.7713 24.9261 33.766C24.8647 33.7608 24.8049 33.7434 24.7502 33.7151C24.6955 33.6867 24.6469 33.6479 24.6072 33.6007C24.5675 33.5536 24.5374 33.4991 24.5188 33.4404C24.5002 33.3817 24.4934 33.3199 24.4986 33.2585L24.9245 28.2501C24.9258 28.2434 24.9272 28.2367 24.9288 28.2301C24.9854 27.7845 24.6931 27.3869 24.2376 27.296L24.2372 27.2942C24.2338 27.2939 24.2305 27.2935 24.2272 27.2931C23.7217 27.1945 23.239 27.5271 23.1574 28.0162L21.9737 35.116C21.6742 36.9102 22.1038 38.708 22.8742 40.4215L25.8976 47.1454C25.9228 47.2016 25.9368 47.2622 25.9386 47.3237C25.9405 47.3853 25.9301 47.4466 25.9082 47.5042C25.8863 47.5617 25.8533 47.6144 25.811 47.6592C25.7688 47.704 25.718 47.7401 25.6618 47.7653C25.6055 47.7906 25.5449 47.8045 25.4833 47.8063C25.4217 47.8081 25.3604 47.7978 25.3028 47.7759C25.2452 47.754 25.1924 47.721 25.1476 47.6787C25.1027 47.6365 25.0666 47.5858 25.0414 47.5296L22.018 40.8057C21.2005 38.9875 20.7091 37 21.049 34.9628L22.2322 27.8612C22.401 26.8499 23.3955 26.1766 24.4063 26.3736L24.361 26.3669C24.3794 26.3678 24.3976 26.3699 24.4158 26.373C24.878 26.4624 25.2691 26.7236 25.53 27.0785L25.5265 27.0795Z" fill="white"/>
<path d="M34.9867 22.177C34.8985 22.1796 34.8134 22.2096 34.7431 22.263C34.6729 22.3163 34.6211 22.3902 34.5949 22.4745L33.4213 26.2581L29.5021 26.2188C29.412 26.2175 29.3239 26.2451 29.2506 26.2974C29.1772 26.3497 29.1225 26.424 29.0943 26.5095C29.0661 26.595 29.0659 26.6874 29.0937 26.773C29.1216 26.8587 29.176 26.9331 29.2491 26.9857L32.4477 29.2851L31.1964 33.0489C31.1681 33.1345 31.1679 33.227 31.1959 33.3127C31.2238 33.3984 31.2783 33.4729 31.3515 33.5255C31.4247 33.578 31.5128 33.6059 31.6029 33.6049C31.6931 33.6039 31.7805 33.5742 31.8526 33.5201L34.9999 31.1612L38.1455 33.5201C38.2176 33.5742 38.3051 33.6039 38.3952 33.6049C38.4853 33.6059 38.5734 33.578 38.6466 33.5255C38.7199 33.4729 38.7744 33.3984 38.8023 33.3127C38.8302 33.227 38.83 33.1345 38.8018 33.0489L37.5505 29.2851L40.7507 26.9857C40.8238 26.9331 40.8782 26.8587 40.9061 26.773C40.9339 26.6874 40.9337 26.595 40.9055 26.5095C40.8773 26.424 40.8226 26.3497 40.7492 26.2974C40.6759 26.2451 40.5878 26.2175 40.4977 26.2188L36.5785 26.2581L35.4032 22.4728C35.3755 22.3848 35.3198 22.3084 35.2446 22.255C35.1694 22.2016 35.0789 22.1742 34.9867 22.177Z" fill="white"/>
</g>
<defs>
<clipPath id="clip0_51_991">
<rect width="30" height="30" fill="white" transform="translate(20 20)"/>
</clipPath>
</defs>
</svg>
