<svg width="31" height="30" viewBox="0 0 31 30" fill="none" xmlns="http://www.w3.org/2000/svg">
<path d="M12.832 8.9647C12.6992 8.59717 12.4121 8.30083 12.042 8.15068C11.8854 8.08857 11.7141 8.05576 11.5466 8.05576C11.4788 8.05576 11.4108 8.06162 11.4029 8.0644C11.2705 8.07407 11.1381 8.10659 10.9982 8.16357L10.9644 8.17734C10.9418 8.18657 10.9206 8.19844 10.9009 8.21265L9.32212 9.36196L7.93579 8.74351L7.8542 8.70352C7.83135 8.69224 7.80161 8.68403 7.77173 8.67905C7.6314 8.63291 7.48506 8.60947 7.33623 8.60947C6.67134 8.60947 5.96455 9.10547 5.96455 10.0247V15.358L3.76084 19.173C3.6397 19.3778 3.57568 19.6157 3.57568 19.8609C3.57568 20.361 3.84624 20.8213 4.27954 21.0604C4.48564 21.1764 4.71899 21.2379 4.95439 21.2379C5.45112 21.2379 5.91094 20.9698 6.15278 20.5412L8.38374 16.6884L8.78555 16.5715L8.71597 17.9678L8.71289 18.0023C8.71216 18.0111 8.71172 18.0357 8.71172 18.0445C8.71172 18.7793 9.2874 19.3846 10.0314 19.4227L10.0925 19.4238C10.8274 19.4238 11.4315 18.8487 11.4678 18.1145L11.5453 16.5621C11.5717 16.0644 11.6169 15.5382 11.7696 15.0583C11.8471 14.8011 11.8497 14.5288 11.7763 14.2682C11.6061 13.6828 11.0622 13.274 10.454 13.274C10.3147 13.274 10.1877 13.2916 10.0677 13.3271L8.72139 13.7174V12.1206L9.35171 12.4172C9.4481 12.4627 9.56206 12.4534 9.6501 12.3924L12.1698 10.6479C13.0015 10.0397 12.9889 9.39668 12.832 8.9647ZM11.8213 10.1596L9.45088 11.8008L8.54912 11.3763C8.4564 11.3329 8.34727 11.3392 8.26069 11.3944C8.17397 11.4494 8.12139 11.545 8.12139 11.6477V14.1167C8.12139 14.211 8.16577 14.3 8.24121 14.3565C8.31665 14.4132 8.41479 14.4309 8.50488 14.4048L10.2366 13.9028C10.3021 13.8835 10.3733 13.874 10.454 13.874C10.7971 13.874 11.104 14.105 11.1995 14.4331C11.2412 14.5812 11.2396 14.7375 11.1964 14.8808C11.0246 15.4207 10.9746 15.9929 10.9462 16.5313L10.8687 18.0847C10.848 18.4992 10.5072 18.8238 10.0989 18.8238L10.0532 18.8229C9.6375 18.8016 9.31172 18.4597 9.31055 18.0557L9.40576 16.1807C9.41074 16.0837 9.36841 15.9905 9.29224 15.9305C9.21592 15.8701 9.11514 15.8502 9.02241 15.8777L8.10059 16.1461C8.02647 16.1675 7.96348 16.217 7.92481 16.2838L5.63203 20.2436C5.42988 20.6016 4.94224 20.7448 4.57192 20.5365C4.32744 20.4015 4.17568 20.1428 4.17568 19.8609C4.17568 19.7232 4.21084 19.5908 4.27881 19.4757L6.52427 15.5886C6.55064 15.5429 6.56455 15.4913 6.56455 15.4386V10.0247C6.56455 9.42656 7.02598 9.20947 7.33623 9.20947C7.42793 9.20947 7.51772 9.225 7.60327 9.25547C7.61235 9.25869 7.62305 9.26147 7.63433 9.26382L9.23613 9.98057C9.33398 10.0241 9.4481 10.0122 9.53496 9.94922L11.2244 8.71934C11.3052 8.68652 11.378 8.66792 11.475 8.65942C11.4917 8.65693 11.5192 8.65576 11.5466 8.65576C11.6391 8.65576 11.734 8.67393 11.8187 8.70762C12.029 8.79287 12.1928 8.96103 12.2679 9.16904C12.3497 9.39419 12.3918 9.74238 11.8213 10.1596ZM7.34971 8.07363C8.26875 8.07363 9.01641 7.32598 9.01641 6.40693C9.01641 5.48789 8.26875 4.74023 7.34971 4.74023C6.43066 4.74023 5.68301 5.48789 5.68301 6.40693C5.68301 7.32598 6.43066 8.07363 7.34971 8.07363ZM7.34971 5.34023C7.93784 5.34023 8.41641 5.8188 8.41641 6.40693C8.41641 6.99507 7.93784 7.47363 7.34971 7.47363C6.76157 7.47363 6.28301 6.99507 6.28301 6.40693C6.28301 5.8188 6.76157 5.34023 7.34971 5.34023Z" fill="#25D366"/>
<path d="M26.2696 4.79844L27.3355 3.74229C27.4218 3.65659 27.448 3.52739 27.4018 3.41504C27.3555 3.30254 27.2459 3.22915 27.1243 3.22915H23.7221V3.00312C23.7221 2.83745 23.5877 2.70312 23.4221 2.70312C23.2564 2.70312 23.1221 2.83745 23.1221 3.00312V11.5522H21.2752C21.1095 11.5522 20.9752 11.6866 20.9752 11.8522V14.265H16.9812C16.8155 14.265 16.6812 14.3993 16.6812 14.565V16.9779H12.6873C12.5216 16.9779 12.3873 17.1121 12.3873 17.2779V19.6908H8.39321C8.22754 19.6908 8.09321 19.8249 8.09321 19.9908V22.4037H4.09932C3.93364 22.4037 3.79932 22.5378 3.79932 22.7037V26.9977C3.79932 27.1635 3.93364 27.2977 4.09932 27.2977C4.26499 27.2977 4.39932 27.1635 4.39932 26.9977V23.0037H8.09321V24.2848C8.09321 24.4506 8.22754 24.5848 8.39321 24.5848C8.55889 24.5848 8.69321 24.4506 8.69321 24.2848V20.2908H12.3873V21.5719C12.3873 21.7377 12.5216 21.8719 12.6873 21.8719C12.8529 21.8719 12.9873 21.7377 12.9873 21.5719V17.5779H16.6812V18.859C16.6812 19.0249 16.8155 19.159 16.9812 19.159C17.1468 19.159 17.2812 19.0249 17.2812 18.859V14.865H20.9752V16.1461C20.9752 16.312 21.1095 16.4461 21.2752 16.4461C21.4409 16.4461 21.5752 16.312 21.5752 16.1461V12.1522H25.2691V16.1461C25.2691 16.312 25.4034 16.4461 25.5691 16.4461C25.7348 16.4461 25.8691 16.312 25.8691 16.1461V11.8522C25.8691 11.6866 25.7348 11.5522 25.5691 11.5522H23.7221V6.36787H27.1243C27.2459 6.36787 27.3555 6.29448 27.4018 6.18198C27.448 6.06963 27.4218 5.94043 27.3355 5.85474L26.2696 4.79844ZM23.7221 5.76787V3.82915H26.3954L25.6322 4.5853C25.5754 4.6417 25.5435 4.71846 25.5435 4.79844C25.5435 4.87842 25.5754 4.95518 25.6322 5.01157L26.3954 5.76787H23.7221Z" fill="#25D366"/>
<path d="M16.9837 10.1684C17.3161 10.1684 17.654 10.1053 17.9801 9.97201C19.328 9.42065 19.9762 7.87553 19.425 6.52773C19.158 5.8747 18.6526 5.36479 18.0021 5.09189C17.3515 4.81899 16.6337 4.81562 15.9806 5.08266C14.6326 5.63402 13.9844 7.17914 14.5357 8.52709C14.9536 9.54897 15.9425 10.1684 16.9837 10.1684ZM16.2076 5.63813C16.4571 5.53603 16.7187 5.48505 16.9803 5.48505C17.248 5.48505 17.5156 5.53852 17.7699 5.64516C18.2726 5.85609 18.6633 6.25014 18.8695 6.75478C19.0759 7.25941 19.0734 7.81415 18.8625 8.31689C18.6516 8.81977 18.2575 9.21029 17.753 9.41654C16.7108 9.84296 15.5171 9.34154 15.0911 8.30004C14.665 7.25824 15.166 6.0641 16.2076 5.63813Z" fill="#25D366"/>
<path d="M12.9788 7.14884C12.9998 7.16877 13.0146 7.184 13.0138 7.18092C12.9929 7.39655 12.9923 7.6214 13.0162 7.83337C12.9381 7.97956 12.9932 8.1612 13.1394 8.23927C13.2854 8.31764 13.4675 8.26183 13.5453 8.11608C13.5942 8.02467 13.6166 7.91803 13.6097 7.79909C13.5929 7.6028 13.5936 7.41076 13.6129 7.21842C13.6258 7.03136 13.5532 6.86598 13.3849 6.70719L12.9721 6.32985C13.0528 6.05446 13.1684 5.77746 13.3144 5.5091C13.3239 5.50793 13.3387 5.50675 13.3595 5.50822L13.9424 5.54162C14.1224 5.5488 14.2945 5.46969 14.4056 5.33434C14.5206 5.19577 14.6569 5.06042 14.8084 4.93415C14.9518 4.81711 15.0297 4.6403 15.0176 4.4714L14.9912 3.84738C15.1176 3.77546 15.254 3.7091 15.3942 3.6508C15.5335 3.59455 15.6757 3.54694 15.8203 3.50841L16.2371 3.97497C16.3134 4.05788 16.4126 4.11545 16.4984 4.13449C16.5712 4.15866 16.6377 4.15837 16.7083 4.15763C16.9059 4.14049 17.0993 4.14137 17.2913 4.161C17.4693 4.17404 17.6421 4.10636 17.7589 3.97746L18.1796 3.51808C18.46 3.60422 18.7308 3.71759 18.9844 3.85441C18.9891 3.86012 19.0021 3.8903 18.9993 3.9486L18.9694 4.47931C18.9564 4.66125 19.0318 4.8341 19.1736 4.95143C19.3238 5.07887 19.4581 5.2151 19.5788 5.36291C19.6915 5.49328 19.8542 5.56813 20.0439 5.56813H20.046L20.6612 5.53913C20.7267 5.65851 20.7995 5.79782 20.8578 5.94504C20.9073 6.06398 20.9514 6.19274 20.9924 6.35314C20.987 6.37731 20.9597 6.40544 20.9388 6.42419L20.5317 6.78556C20.4051 6.90612 20.3398 7.07619 20.3528 7.25636C20.3695 7.45251 20.3688 7.64469 20.3503 7.82648C20.3303 8.01911 20.4038 8.18903 20.5781 8.3487L20.9902 8.72575C20.9008 9.02121 20.7844 9.29792 20.6435 9.54943L20.0281 9.5175C19.8545 9.5068 19.678 9.57975 19.559 9.71862C19.4389 9.85998 19.304 9.99401 19.1607 10.1168C19.108 10.1562 19.0614 10.2073 19.0233 10.2685C18.9623 10.3705 18.9331 10.4822 18.939 10.5876L18.9683 11.2101C18.929 11.233 18.8895 11.2533 18.8489 11.2744L18.8237 11.2879C18.7373 11.3282 18.6508 11.3686 18.5654 11.4045C18.4286 11.4597 18.2892 11.5069 18.1418 11.547L17.7341 11.097C17.6175 10.9539 17.4344 10.8819 17.2557 10.9005C17.052 10.9148 16.8573 10.9139 16.6711 10.8974C16.4937 10.8846 16.3232 10.9491 16.1993 11.0795L15.7838 11.5387C15.5011 11.452 15.2291 11.338 14.9757 11.2006C14.9714 11.1952 14.9603 11.1657 14.9632 11.1057L14.993 10.5783C15.0054 10.3977 14.9275 10.22 14.7914 10.1093C14.637 9.97526 14.5039 9.8402 14.3858 9.6984C14.2645 9.5506 14.0917 9.48175 13.859 9.49025L13.7629 9.49626C13.5976 9.50666 13.4719 9.64904 13.4823 9.81442C13.4925 9.97965 13.6323 10.1077 13.8004 10.0951L13.8905 10.0894C13.8987 10.0891 13.9058 10.0889 13.9116 10.0889C13.9213 10.0891 13.9272 10.0891 13.9296 10.0882C14.0653 10.2505 14.2151 10.4026 14.3933 10.558L14.364 11.0745C14.3451 11.476 14.5579 11.6551 14.6886 11.7274C14.9855 11.8885 15.3032 12.0206 15.6409 12.1221C15.846 12.1781 16.0717 12.1123 16.2182 11.9529L16.6233 11.4955C16.8306 11.5139 17.0514 11.5157 17.2894 11.4993L17.7019 11.9547C17.8109 12.0833 17.9692 12.1538 18.1274 12.1538C18.178 12.1538 18.2285 12.1466 18.2773 12.1318C18.449 12.0864 18.6215 12.029 18.7938 11.9594C18.8905 11.9188 18.9842 11.8752 19.0898 11.8255L19.1252 11.807C19.1805 11.7783 19.234 11.7504 19.2752 11.7253C19.4662 11.6234 19.5812 11.4148 19.5684 11.1972L19.5415 10.6418L19.5353 10.5851C19.712 10.4346 19.8712 10.2769 20.0076 10.1172L20.6252 10.1491C20.8456 10.165 21.0501 10.0492 21.1556 9.86276C21.327 9.56086 21.4671 9.22775 21.5742 8.86652C21.6309 8.65807 21.5634 8.43161 21.4069 8.29391L21.0289 7.94601C21.0277 7.94499 21.0056 7.9258 21.0044 7.92477L20.9804 7.90353C20.9632 7.88771 20.9531 7.87629 20.9486 7.87409C20.9695 7.65846 20.9698 7.4339 20.9348 7.2297L21.3374 6.87258C21.4635 6.76008 21.5442 6.63073 21.5726 6.50505C21.6012 6.40778 21.6022 6.30041 21.5732 6.18527C21.5224 6.00744 21.4696 5.85348 21.4137 5.7193C21.3416 5.53722 21.2528 5.36921 21.1753 5.22873C21.0731 5.04372 20.8718 4.9359 20.6508 4.93898L20.1596 4.96022L20.0383 4.97721C19.9027 4.81081 19.7458 4.65114 19.5689 4.50011L19.5984 3.98141C19.6127 3.68757 19.489 3.44264 19.2709 3.32809C18.973 3.16637 18.6551 3.03439 18.3189 2.93346C18.1075 2.8759 17.8789 2.94606 17.7456 3.10397L17.3432 3.56335C17.1226 3.54064 16.8917 3.53932 16.6814 3.57184L16.257 3.09665C16.1155 2.93551 15.8903 2.86798 15.6864 2.92336C15.513 2.96833 15.339 3.0259 15.1667 3.09562C14.9956 3.16667 14.8315 3.24709 14.681 3.33366C14.4895 3.44191 14.3785 3.64421 14.3911 3.85719L14.4176 4.47887C14.2392 4.62843 14.0802 4.78708 13.9699 4.9422L13.3932 4.9091C13.0332 4.88932 12.8688 5.07799 12.8019 5.19591C12.6234 5.52008 12.4846 5.8529 12.3907 6.18073C12.3259 6.3943 12.3945 6.6256 12.5544 6.76037L12.9788 7.14884Z" fill="#25D366"/>
</svg>
