<svg width="71" height="70" viewBox="0 0 71 70" fill="none" xmlns="http://www.w3.org/2000/svg">
<rect x="0.5" width="70" height="70" rx="12" fill="white"/>
<path d="M38.3125 42.5V41.0938C38.3125 39.3946 40.1606 37.7873 41.3594 36.6407C43.0493 35.0252 43.9375 32.8549 43.9375 30.3125C43.9375 25.625 40.2034 21.875 35.5 21.875C34.3911 21.8719 33.2926 22.0881 32.2675 22.511C31.2424 22.9339 30.311 23.5553 29.5269 24.3394C28.7428 25.1235 28.1214 26.0549 27.6985 27.08C27.2756 28.1051 27.0594 29.2036 27.0625 30.3125C27.0625 32.7641 27.9889 35.0815 29.6407 36.6407C30.833 37.7662 32.6875 39.377 32.6875 41.0938V42.5M33.625 48.125H37.375M32.6875 45.3125H38.3125M35.5 42.5V35" stroke="#006B4F" stroke-linecap="round" stroke-linejoin="round"/>
<path d="M37.7266 34.0625C37.7266 34.0625 36.4662 35 35.5 35C34.5338 35 33.2734 34.0625 33.2734 34.0625" stroke="#006B4F" stroke-linecap="round" stroke-linejoin="round"/>
</svg>
