<svg width="28" height="28" viewBox="0 0 28 28" fill="none" xmlns="http://www.w3.org/2000/svg">
<path fill-rule="evenodd" clip-rule="evenodd" d="M5.90651 22.1254H2.12494C1.62757 22.1254 1.15073 21.9271 0.798628 21.5754C0.448101 21.2254 0.250732 20.7471 0.250732 20.2504V18.2221C0.250732 15.8904 2.14072 14.0004 4.47125 14.0004H7.27862C9.02652 14.0004 10.525 15.0621 11.166 16.5754C11.4818 16.5254 11.8055 16.5004 12.1355 16.5004H15.865C16.195 16.5004 16.5186 16.5254 16.8344 16.5754C17.4755 15.0621 18.9739 14.0004 20.7218 14.0004H23.5292C23.9776 14.0004 24.4102 14.0704 24.816 14.2004C25.1445 14.3054 25.326 14.6571 25.2202 14.9854C25.116 15.3138 24.7639 15.4954 24.4355 15.3904C24.1497 15.2988 23.845 15.2504 23.5292 15.2504H20.7218C19.5565 15.2504 18.5476 15.9204 18.0613 16.8971C19.855 17.5688 21.2571 19.0388 21.8365 20.8754H25.8755C26.0413 20.8754 26.2008 20.8088 26.3176 20.6921C26.4344 20.5754 26.5008 20.4154 26.5008 20.2504V18.2221C26.5008 17.6004 26.3097 17.0238 25.9844 16.5471C25.7902 16.2621 25.8629 15.8738 26.1471 15.6788C26.4329 15.4838 26.8213 15.5571 27.0155 15.8421C27.4797 16.5204 27.7497 17.3388 27.7497 18.2221V20.2504C27.7497 20.7471 27.5523 21.2254 27.2018 21.5754C26.8497 21.9271 26.3729 22.1254 25.8755 22.1254H22.0939C22.1145 22.3338 22.1255 22.5454 22.1255 22.7604V25.8754C22.1255 26.3721 21.9281 26.8504 21.576 27.2004C21.2239 27.5521 20.7471 27.7505 20.2497 27.7505H12.1244C11.7802 27.7505 11.5008 27.4705 11.5008 27.1255C11.5008 26.7805 11.7802 26.5005 12.126 26.5005H20.2497C20.4155 26.5005 20.575 26.4338 20.6918 26.3171C20.8087 26.2004 20.875 26.0404 20.875 25.8754V22.7604C20.875 22.3754 20.8323 22.0004 20.7502 21.6404C20.3318 19.8088 18.9092 18.3588 17.0934 17.9021C16.7002 17.8021 16.2881 17.7504 15.865 17.7504H12.1355C11.7123 17.7504 11.3002 17.8021 10.9071 17.9021C9.09126 18.3588 7.66864 19.8088 7.25022 21.6404C7.16811 22.0004 7.12546 22.3754 7.12546 22.7604V25.8754C7.12546 26.0404 7.19177 26.2004 7.30862 26.3171C7.42546 26.4338 7.58496 26.5005 7.75075 26.5005H8.376C8.72021 26.5005 8.99967 26.7805 8.99967 27.1255C8.99967 27.4705 8.7202 27.7505 8.37441 27.7505H7.75075C7.25338 27.7505 6.77651 27.5521 6.42441 27.2004C6.0723 26.8504 5.87495 26.3721 5.87495 25.8754V22.7604C5.87495 22.5454 5.88598 22.3338 5.90651 22.1254ZM9.93915 16.8971C9.45283 15.9204 8.44389 15.2504 7.27862 15.2504H4.47125C2.83072 15.2504 1.49966 16.5804 1.49966 18.2221V20.2504C1.49966 20.4154 1.56599 20.5754 1.68284 20.6921C1.79968 20.8088 1.95915 20.8754 2.12494 20.8754H6.16389C6.74337 19.0388 8.14546 17.5688 9.93915 16.8971ZM10.2502 26.5005C10.5944 26.5005 10.8755 26.7805 10.8755 27.1255C10.8755 27.4705 10.5944 27.7505 10.2502 27.7505C9.906 27.7505 9.62495 27.4705 9.62495 27.1255C9.62495 26.7805 9.906 26.5005 10.2502 26.5005ZM13.9892 7.75043C16.0592 7.75043 17.7392 9.43043 17.7392 11.5004C17.7392 13.5704 16.0592 15.2504 13.9892 15.2504C11.9192 15.2504 10.2392 13.5704 10.2392 11.5004C10.2392 9.43043 11.9192 7.75043 13.9892 7.75043ZM13.9892 9.00043C12.6092 9.00043 11.4897 10.1204 11.4897 11.5004C11.4897 12.8804 12.6092 14.0004 13.9892 14.0004C15.3692 14.0004 16.4886 12.8804 16.4886 11.5004C16.4886 10.1204 15.3692 9.00043 13.9892 9.00043ZM22.1145 6.50042C23.8387 6.50042 25.2392 7.90043 25.2392 9.62543C25.2392 11.3504 23.8387 12.7504 22.1145 12.7504C20.3902 12.7504 18.9897 11.3504 18.9897 9.62543C18.9897 7.90043 20.3902 6.50042 22.1145 6.50042ZM22.1145 7.75043C21.0787 7.75043 20.2387 8.59043 20.2387 9.62543C20.2387 10.6604 21.0787 11.5004 22.1145 11.5004C23.1487 11.5004 23.9887 10.6604 23.9887 9.62543C23.9887 8.59043 23.1487 7.75043 22.1145 7.75043ZM5.88598 6.50042C7.61019 6.50042 9.01073 7.90043 9.01073 9.62543C9.01073 11.3504 7.61019 12.7504 5.88598 12.7504C4.16177 12.7504 2.76126 11.3504 2.76126 9.62543C2.76126 7.90043 4.16177 6.50042 5.88598 6.50042ZM5.88598 7.75043C4.85177 7.75043 4.01177 8.59043 4.01177 9.62543C4.01177 10.6604 4.85177 11.5004 5.88598 11.5004C6.92177 11.5004 7.76178 10.6604 7.76178 9.62543C7.76178 8.59043 6.92177 7.75043 5.88598 7.75043ZM17.8497 5.64876C17.6792 6.15709 17.2023 6.50042 16.6655 6.50042H11.3349C10.7981 6.50042 10.3213 6.15709 10.1507 5.64876L9.03285 2.32542C8.96022 2.10875 9.01074 1.86875 9.16548 1.70208C9.32179 1.53375 9.55547 1.46375 9.77652 1.51875L11.9334 2.05875L13.5581 0.43375C13.8029 0.18875 14.1976 0.18875 14.4423 0.43375L16.0671 2.05875L18.2239 1.51875C18.445 1.46375 18.6786 1.53375 18.835 1.70208C18.9897 1.86875 19.0402 2.10875 18.9676 2.32542L17.8497 5.64876ZM11.3349 5.25042H16.6655L17.4186 3.00875L16.0276 3.35709C15.8144 3.41042 15.5886 3.34709 15.4339 3.19209L14.0002 1.75875L12.5665 3.19209C12.4118 3.34709 12.186 3.41042 11.9729 3.35709L10.5818 3.00875L11.3349 5.25042Z" fill="#25D366"/>
</svg>
