<svg width="26" height="26" viewBox="0 0 26 26" fill="none" xmlns="http://www.w3.org/2000/svg">
<path fill-rule="evenodd" clip-rule="evenodd" d="M13 0.5C6.09647 0.5 0.5 6.09641 0.5 13C0.5 19.9035 6.09647 25.5 13 25.5C19.9036 25.5 25.5 19.9036 25.5 13C25.5 6.09641 19.9036 0.5 13 0.5ZM13 23C7.48602 23 3.00002 18.514 3.00002 13C3.00002 7.48596 7.48596 3.00002 13 3.00002C18.5141 3.00002 23 7.48596 23 13C23 18.514 18.5141 23 13 23ZM14.5653 8C14.5653 8.90633 13.9054 9.56252 13.0127 9.56252C12.0839 9.56252 11.4402 8.90627 11.4402 7.98266C11.4402 7.09496 12.1013 6.43754 13.0127 6.43754C13.9054 6.43754 14.5653 7.09496 14.5653 8ZM11.7528 11.75H14.2527V19.25H11.7528V11.75Z" fill="white"/>
</svg>
