<svg width="18" height="24" viewBox="0 0 18 24" fill="none" xmlns="http://www.w3.org/2000/svg">
<path d="M9 13.9238C9.5275 13.9238 9.97167 13.7429 10.3325 13.3813C10.6933 13.0196 10.8742 12.5754 10.875 12.0488C10.8758 11.5221 10.695 11.0775 10.3325 10.715C9.97167 10.3542 9.5275 10.1737 9 10.1737C8.4725 10.1737 8.02833 10.3542 7.6675 10.715C7.30667 11.0758 7.12583 11.5204 7.125 12.0488C7.12417 12.5771 7.305 13.0213 7.6675 13.3813C8.02833 13.7429 8.4725 13.9238 9 13.9238ZM4.625 18.1538H13.375V17.9638C13.375 17.5763 13.2717 17.2463 13.065 16.9738C12.8583 16.7013 12.5792 16.4846 12.2275 16.3238C11.735 16.1113 11.2183 15.9463 10.6775 15.8288C10.1358 15.7121 9.57667 15.6538 9 15.6538C8.42333 15.6538 7.86458 15.7121 7.32375 15.8288C6.78292 15.9454 6.26542 16.1104 5.77125 16.3238C5.42125 16.4846 5.1425 16.7013 4.935 16.9738C4.72833 17.2463 4.625 17.5763 4.625 17.9638V18.1538ZM15.7313 23.25H2.26875C1.69375 23.25 1.21375 23.0575 0.82875 22.6725C0.44375 22.2875 0.250833 21.8071 0.25 21.2313V2.76875C0.25 2.19375 0.442916 1.71375 0.82875 1.32875C1.21458 0.94375 1.695 0.750833 2.27 0.75H10.9712L17.75 7.52875V21.2313C17.75 21.8063 17.5575 22.2867 17.1725 22.6725C16.7875 23.0583 16.3079 23.2508 15.7313 23.25ZM15.73 22C15.9225 22 16.0992 21.92 16.26 21.76C16.4208 21.6 16.5008 21.4233 16.5 21.23V8.0625L10.4375 2H2.27C2.0775 2 1.90083 2.08 1.74 2.24C1.57917 2.4 1.49917 2.57625 1.5 2.76875V21.2313C1.5 21.4229 1.58 21.5992 1.74 21.76C1.9 21.9208 2.07625 22.0008 2.26875 22H15.73Z" fill="white"/>
</svg>
