<svg width="22" height="22" viewBox="0 0 22 22" fill="none" xmlns="http://www.w3.org/2000/svg">
<path d="M11.0001 13.3333L2.83341 21.5C2.52786 21.8055 2.13897 21.9583 1.66675 21.9583C1.19453 21.9583 0.805636 21.8055 0.500081 21.5C0.194525 21.1944 0.041748 20.8055 0.041748 20.3333C0.041748 19.8611 0.194525 19.4722 0.500081 19.1666L8.66675 11L0.500081 2.83329C0.194525 2.52774 0.041748 2.13885 0.041748 1.66663C0.041748 1.1944 0.194525 0.805514 0.500081 0.499959C0.805636 0.194403 1.19453 0.041626 1.66675 0.041626C2.13897 0.041626 2.52786 0.194403 2.83341 0.499959L11.0001 8.66663L19.1667 0.499959C19.4723 0.194403 19.8612 0.041626 20.3334 0.041626C20.8056 0.041626 21.1945 0.194403 21.5001 0.499959C21.8056 0.805514 21.9584 1.1944 21.9584 1.66663C21.9584 2.13885 21.8056 2.52774 21.5001 2.83329L13.3334 11L21.5001 19.1666C21.8056 19.4722 21.9584 19.8611 21.9584 20.3333C21.9584 20.8055 21.8056 21.1944 21.5001 21.5C21.1945 21.8055 20.8056 21.9583 20.3334 21.9583C19.8612 21.9583 19.4723 21.8055 19.1667 21.5L11.0001 13.3333Z" fill="#006B4F"/>
</svg>
