<svg width="20" height="24" viewBox="0 0 20 24" fill="none" xmlns="http://www.w3.org/2000/svg">
<path d="M13.6063 19.5C12.8754 19.5 12.2521 19.2417 11.7362 18.725C11.2204 18.2084 10.9621 17.5854 10.9613 16.8563C10.9604 16.1271 11.2188 15.5034 11.7362 14.985C12.2537 14.4667 12.8771 14.2088 13.6063 14.2113C14.3354 14.2138 14.9588 14.4721 15.4763 14.9863C15.9938 15.5004 16.2517 16.1238 16.25 16.8563C16.2483 17.5888 15.99 18.2121 15.475 18.7263C14.96 19.2404 14.3371 19.4984 13.6063 19.5ZM2.01875 23.25C1.44375 23.25 0.96375 23.0575 0.57875 22.6725C0.19375 22.2875 0.000833333 21.8071 0 21.2313V5.26877C0 4.69377 0.192916 4.21377 0.57875 3.82877C0.964583 3.44377 1.445 3.25086 2.02 3.25002H4.23125V0.462524H5.5775V3.25002H14.52V0.462524H15.77V3.25002H17.9813C18.5562 3.25002 19.0367 3.44294 19.4225 3.82877C19.8083 4.21461 20.0008 4.69502 20 5.27002V21.2313C20 21.8063 19.8075 22.2867 19.4225 22.6725C19.0375 23.0584 18.5567 23.2509 17.98 23.25H2.01875ZM2.01875 22H17.9813C18.1729 22 18.3492 21.92 18.51 21.76C18.6708 21.6 18.7508 21.4234 18.75 21.23V10.27H1.25V21.2313C1.25 21.4229 1.33 21.5992 1.49 21.76C1.65 21.9209 1.82625 22.0009 2.01875 22ZM1.25 9.01877H18.75V5.26877C18.75 5.07711 18.67 4.90086 18.51 4.74002C18.35 4.57919 18.1733 4.49919 17.98 4.50002H2.02C1.8275 4.50002 1.65083 4.58002 1.49 4.74002C1.32917 4.90002 1.24917 5.07669 1.25 5.27002V9.01877Z" fill="white"/>
</svg>
