<svg width="24" height="24" viewBox="0 0 24 24" fill="none" xmlns="http://www.w3.org/2000/svg">
<path d="M21.375 9.50002C21.375 9.33426 21.3091 9.17529 21.1919 9.05808C21.0747 8.94087 20.9158 8.87502 20.75 8.87502C20.5842 8.87502 20.4253 8.94087 20.3081 9.05808C20.1908 9.17529 20.125 9.33426 20.125 9.50002H21.375ZM3.875 9.50002C3.875 9.33426 3.80915 9.17529 3.69194 9.05808C3.57473 8.94087 3.41576 8.87502 3.25 8.87502C3.08424 8.87502 2.92526 8.94087 2.80805 9.05808C2.69084 9.17529 2.625 9.33426 2.625 9.50002H3.875ZM22.8075 12.4425C22.9249 12.5599 23.084 12.6258 23.25 12.6258C23.416 12.6258 23.5751 12.5599 23.6925 12.4425C23.8099 12.3252 23.8758 12.166 23.8758 12C23.8758 11.834 23.8099 11.6749 23.6925 11.5575L22.8075 12.4425ZM12 0.750019L12.4425 0.307519C12.3844 0.249314 12.3155 0.203136 12.2395 0.171628C12.1636 0.14012 12.0822 0.123901 12 0.123901C11.9178 0.123901 11.8364 0.14012 11.7605 0.171628C11.6845 0.203136 11.6156 0.249314 11.5575 0.307519L12 0.750019ZM0.307496 11.5575C0.190138 11.6749 0.124207 11.834 0.124207 12C0.124207 12.166 0.190138 12.3252 0.307496 12.4425C0.424854 12.5599 0.584026 12.6258 0.749996 12.6258C0.915966 12.6258 1.07514 12.5599 1.1925 12.4425L0.307496 11.5575ZM5.75 23.875H18.25V22.625H5.75V23.875ZM21.375 20.75V9.50002H20.125V20.75H21.375ZM3.875 20.75V9.50002H2.625V20.75H3.875ZM23.6925 11.5575L12.4425 0.307519L11.5575 1.19252L22.8075 12.4425L23.6925 11.5575ZM11.5575 0.307519L0.307496 11.5575L1.1925 12.4425L12.4425 1.19252L11.5575 0.307519ZM18.25 23.875C19.0788 23.875 19.8737 23.5458 20.4597 22.9597C21.0458 22.3737 21.375 21.5788 21.375 20.75H20.125C20.125 21.2473 19.9275 21.7242 19.5758 22.0758C19.2242 22.4275 18.7473 22.625 18.25 22.625V23.875ZM5.75 22.625C5.25271 22.625 4.7758 22.4275 4.42417 22.0758C4.07254 21.7242 3.875 21.2473 3.875 20.75H2.625C2.625 21.5788 2.95424 22.3737 3.54029 22.9597C4.12634 23.5458 4.92119 23.875 5.75 23.875V22.625Z" fill="#006B4F"/>
</svg>
