<svg width="28" height="30" viewBox="0 0 28 30" fill="none" xmlns="http://www.w3.org/2000/svg">
<path d="M13.8915 13.2267C12.6634 13.2267 11.4856 12.729 10.6172 11.8431C9.74885 10.9573 9.26099 9.75573 9.26099 8.50289C9.26099 7.25005 9.74885 6.04852 10.6172 5.16263C11.4856 4.27674 12.6634 3.77905 13.8915 3.77905C15.1196 3.77905 16.2974 4.27674 17.1657 5.16263C18.0341 6.04852 18.522 7.25005 18.522 8.50289C18.522 9.75573 18.0341 10.9573 17.1657 11.8431C16.2974 12.729 15.1196 13.2267 13.8915 13.2267ZM13.8915 5.66859C12.3542 5.66859 11.1132 6.93458 11.1132 8.50289C11.1132 10.0712 12.3542 11.3372 13.8915 11.3372C15.4288 11.3372 16.6698 10.0712 16.6698 8.50289C16.6698 6.93458 15.4288 5.66859 13.8915 5.66859Z" fill="#006B4F"/>
<path d="M25.0047 20.7849C24.486 20.7849 24.0786 20.3692 24.0786 19.8401C24.0786 19.311 24.486 18.8953 25.0047 18.8953C25.5233 18.8953 25.9308 18.4796 25.9308 17.9506C25.9308 16.6977 25.4429 15.4962 24.5745 14.6103C23.7061 13.7244 22.5284 13.2267 21.3003 13.2267H19.4481C18.9295 13.2267 18.522 12.811 18.522 12.282C18.522 11.7529 18.9295 11.3372 19.4481 11.3372C20.9854 11.3372 22.2264 10.0712 22.2264 8.50289C22.2264 6.93458 20.9854 5.66859 19.4481 5.66859C18.9295 5.66859 18.522 5.25289 18.522 4.72382C18.522 4.19475 18.9295 3.77905 19.4481 3.77905C20.6762 3.77905 21.8539 4.27674 22.7223 5.16263C23.5907 6.04852 24.0786 7.25005 24.0786 8.50289C24.0786 9.6744 23.6711 10.7325 22.9672 11.5639C25.727 12.3198 27.783 14.8895 27.783 17.9506C27.783 19.5189 26.542 20.7849 25.0047 20.7849ZM2.77831 20.7849C1.24098 20.7849 1.33514e-05 19.5189 1.33514e-05 17.9506C1.33514e-05 14.8895 2.03743 12.3198 4.81572 11.5639C4.13041 10.7325 3.70441 9.6744 3.70441 8.50289C3.70441 7.25005 4.19226 6.04852 5.06064 5.16263C5.92903 4.27674 7.10681 3.77905 8.3349 3.77905C8.85351 3.77905 9.26099 4.19475 9.26099 4.72382C9.26099 5.25289 8.85351 5.66859 8.3349 5.66859C6.79757 5.66859 5.5566 6.93458 5.5566 8.50289C5.5566 10.0712 6.79757 11.3372 8.3349 11.3372C8.85351 11.3372 9.26099 11.7529 9.26099 12.282C9.26099 12.811 8.85351 13.2267 8.3349 13.2267H6.4827C5.25462 13.2267 4.07683 13.7244 3.20845 14.6103C2.34006 15.4962 1.85221 16.6977 1.85221 17.9506C1.85221 18.4796 2.25969 18.8953 2.77831 18.8953C3.29692 18.8953 3.70441 19.311 3.70441 19.8401C3.70441 20.3692 3.29692 20.7849 2.77831 20.7849ZM19.4481 26.4535H8.3349C6.79757 26.4535 5.5566 25.1875 5.5566 23.6192V21.7296C5.5566 18.0828 8.46455 15.1163 12.0393 15.1163H15.7437C19.3184 15.1163 22.2264 18.0828 22.2264 21.7296V23.6192C22.2264 25.1875 20.9854 26.4535 19.4481 26.4535ZM12.0393 17.0058C10.8112 17.0058 9.63342 17.5035 8.76504 18.3894C7.89665 19.2753 7.4088 20.4768 7.4088 21.7296V23.6192C7.4088 24.1482 7.81628 24.5639 8.3349 24.5639H19.4481C19.9667 24.5639 20.3742 24.1482 20.3742 23.6192V21.7296C20.3742 20.4768 19.8863 19.2753 19.0179 18.3894C18.1495 17.5035 16.9718 17.0058 15.7437 17.0058H12.0393Z" fill="#006B4F"/>
</svg>
