<svg width="28" height="30" viewBox="0 0 28 30" fill="none" xmlns="http://www.w3.org/2000/svg">
<path d="M13.8915 13.2267C12.6634 13.2267 11.4856 12.729 10.6172 11.8431C9.74884 10.9573 9.26099 9.75573 9.26099 8.50289C9.26099 7.25005 9.74884 6.04852 10.6172 5.16263C11.4856 4.27674 12.6634 3.77905 13.8915 3.77905C15.1196 3.77905 16.2973 4.27674 17.1657 5.16263C18.0341 6.04852 18.522 7.25005 18.522 8.50289C18.522 9.75573 18.0341 10.9573 17.1657 11.8431C16.2973 12.729 15.1196 13.2267 13.8915 13.2267ZM13.8915 5.66859C12.3542 5.66859 11.1132 6.93458 11.1132 8.50289C11.1132 10.0712 12.3542 11.3372 13.8915 11.3372C15.4288 11.3372 16.6698 10.0712 16.6698 8.50289C16.6698 6.93458 15.4288 5.66859 13.8915 5.66859Z" fill="white"/>
<path d="M25.0046 20.7849C24.486 20.7849 24.0785 20.3692 24.0785 19.8401C24.0785 19.311 24.486 18.8953 25.0046 18.8953C25.5233 18.8953 25.9307 18.4796 25.9307 17.9506C25.9307 16.6977 25.4429 15.4962 24.5745 14.6103C23.7061 13.7244 22.5283 13.2267 21.3003 13.2267H19.4481C18.9294 13.2267 18.522 12.811 18.522 12.282C18.522 11.7529 18.9294 11.3372 19.4481 11.3372C20.9854 11.3372 22.2264 10.0712 22.2264 8.50289C22.2264 6.93458 20.9854 5.66859 19.4481 5.66859C18.9294 5.66859 18.522 5.25289 18.522 4.72382C18.522 4.19475 18.9294 3.77905 19.4481 3.77905C20.6761 3.77905 21.8539 4.27674 22.7223 5.16263C23.5907 6.04852 24.0785 7.25005 24.0785 8.50289C24.0785 9.6744 23.6711 10.7325 22.9672 11.5639C25.727 12.3198 27.7829 14.8895 27.7829 17.9506C27.7829 19.5189 26.542 20.7849 25.0046 20.7849ZM2.77829 20.7849C1.24097 20.7849 0 19.5189 0 17.9506C0 14.8895 2.03742 12.3198 4.81571 11.5639C4.1304 10.7325 3.70439 9.6744 3.70439 8.50289C3.70439 7.25005 4.19225 6.04852 5.06063 5.16263C5.92902 4.27674 7.1068 3.77905 8.33488 3.77905C8.8535 3.77905 9.26098 4.19475 9.26098 4.72382C9.26098 5.25289 8.8535 5.66859 8.33488 5.66859C6.79756 5.66859 5.55659 6.93458 5.55659 8.50289C5.55659 10.0712 6.79756 11.3372 8.33488 11.3372C8.8535 11.3372 9.26098 11.7529 9.26098 12.282C9.26098 12.811 8.8535 13.2267 8.33488 13.2267H6.48269C5.2546 13.2267 4.07682 13.7244 3.20844 14.6103C2.34005 15.4962 1.8522 16.6977 1.8522 17.9506C1.8522 18.4796 2.25968 18.8953 2.77829 18.8953C3.29691 18.8953 3.70439 19.311 3.70439 19.8401C3.70439 20.3692 3.29691 20.7849 2.77829 20.7849ZM19.4481 26.4535H8.33488C6.79756 26.4535 5.55659 25.1875 5.55659 23.6192V21.7296C5.55659 18.0828 8.46454 15.1163 12.0393 15.1163H15.7437C19.3184 15.1163 22.2264 18.0828 22.2264 21.7296V23.6192C22.2264 25.1875 20.9854 26.4535 19.4481 26.4535ZM12.0393 17.0058C10.8112 17.0058 9.63341 17.5035 8.76502 18.3894C7.89664 19.2753 7.40878 20.4768 7.40878 21.7296V23.6192C7.40878 24.1482 7.81627 24.5639 8.33488 24.5639H19.4481C19.9667 24.5639 20.3742 24.1482 20.3742 23.6192V21.7296C20.3742 20.4768 19.8863 19.2753 19.0179 18.3894C18.1495 17.5035 16.9717 17.0058 15.7437 17.0058H12.0393Z" fill="white"/>
</svg>
