<svg width="14" height="16" viewBox="0 0 14 16" fill="none" xmlns="http://www.w3.org/2000/svg">
<path d="M9.40384 13.4475C8.91662 13.4475 8.50106 13.2753 8.15717 12.9309C7.81329 12.5864 7.64106 12.1711 7.64051 11.685C7.63995 11.1989 7.81217 10.7831 8.15717 10.4375C8.50217 10.092 8.91773 9.92003 9.40384 9.92169C9.88995 9.92336 10.3055 10.0956 10.6505 10.4384C10.9955 10.7811 11.1675 11.1967 11.1663 11.685C11.1652 12.1734 10.993 12.5889 10.6497 12.9317C10.3063 13.2745 9.89106 13.4464 9.40384 13.4475ZM1.67884 15.9475C1.29551 15.9475 0.975508 15.8192 0.718841 15.5625C0.462174 15.3059 0.333563 14.9856 0.333008 14.6017V3.96003C0.333008 3.57669 0.461619 3.25669 0.718841 3.00003C0.976063 2.74336 1.29634 2.61475 1.67967 2.61419H3.15384V0.755859H4.05134V2.61419H10.013V0.755859H10.8463V2.61419H12.3205C12.7038 2.61419 13.0241 2.7428 13.2813 3.00003C13.5386 3.25725 13.6669 3.57753 13.6663 3.96086V14.6017C13.6663 14.985 13.538 15.3053 13.2813 15.5625C13.0247 15.8197 12.7041 15.9481 12.3197 15.9475H1.67884ZM1.67884 15.1142H12.3205C12.4483 15.1142 12.5658 15.0609 12.673 14.9542C12.7802 14.8475 12.8336 14.7297 12.833 14.6009V7.29419H1.16634V14.6017C1.16634 14.7295 1.21967 14.847 1.32634 14.9542C1.43301 15.0614 1.55051 15.1147 1.67884 15.1142ZM1.16634 6.46003H12.833V3.96003C12.833 3.83225 12.7797 3.71475 12.673 3.60753C12.5663 3.5003 12.4486 3.44697 12.3197 3.44753H1.67967C1.55134 3.44753 1.43356 3.50086 1.32634 3.60753C1.21912 3.71419 1.16579 3.83197 1.16634 3.96086V6.46003Z" fill="white"/>
</svg>
