<svg width="70" height="70" viewBox="0 0 70 70" fill="none" xmlns="http://www.w3.org/2000/svg">
<rect width="70" height="70" rx="12" fill="#25D366"/>
<path d="M38.6063 42.5004C37.8754 42.5004 37.2521 42.2421 36.7362 41.7254C36.2204 41.2087 35.9621 40.5858 35.9613 39.8566C35.9604 39.1275 36.2188 38.5037 36.7362 37.9854C37.2537 37.4671 37.8771 37.2091 38.6063 37.2116C39.3354 37.2141 39.9588 37.4725 40.4763 37.9866C40.9938 38.5008 41.2517 39.1241 41.25 39.8566C41.2483 40.5891 40.99 41.2125 40.475 41.7266C39.96 42.2408 39.3371 42.4987 38.6063 42.5004ZM27.0187 46.2504C26.4437 46.2504 25.9637 46.0579 25.5787 45.6729C25.1937 45.2879 25.0008 44.8075 25 44.2316V28.2691C25 27.6941 25.1929 27.2141 25.5787 26.8291C25.9646 26.4441 26.445 26.2512 27.02 26.2504H29.2313V23.4629H30.5775V26.2504H39.52V23.4629H40.77V26.2504H42.9813C43.5562 26.2504 44.0367 26.4433 44.4225 26.8291C44.8083 27.215 45.0008 27.6954 45 28.2704V44.2316C45 44.8066 44.8075 45.2871 44.4225 45.6729C44.0375 46.0587 43.5567 46.2512 42.98 46.2504H27.0187ZM27.0187 45.0004H42.9813C43.1729 45.0004 43.3492 44.9204 43.51 44.7604C43.6708 44.6004 43.7508 44.4237 43.75 44.2304V33.2704H26.25V44.2316C26.25 44.4233 26.33 44.5996 26.49 44.7604C26.65 44.9212 26.8262 45.0012 27.0187 45.0004ZM26.25 32.0191H43.75V28.2691C43.75 28.0775 43.67 27.9012 43.51 27.7404C43.35 27.5796 43.1733 27.4996 42.98 27.5004H27.02C26.8275 27.5004 26.6508 27.5804 26.49 27.7404C26.3292 27.9004 26.2492 28.0771 26.25 28.2704V32.0191Z" fill="white"/>
</svg>
