<svg width="70" height="70" viewBox="0 0 70 70" fill="none" xmlns="http://www.w3.org/2000/svg">
<rect width="70" height="70" rx="12" fill="#25D366"/>
<path d="M45 35V27.1863C45.0001 27.0876 44.9807 26.9899 44.9429 26.8987C44.9052 26.8075 44.8498 26.7247 44.78 26.655L40.845 22.72C40.7045 22.5793 40.5138 22.5002 40.315 22.5H25.75C25.5511 22.5 25.3603 22.579 25.2197 22.7197C25.079 22.8603 25 23.0511 25 23.25V46.75C25 46.9489 25.079 47.1397 25.2197 47.2803C25.3603 47.421 25.5511 47.5 25.75 47.5H36.25M30 32.5H40M30 27.5H35M30 37.5H33.75" stroke="white" stroke-width="1.5" stroke-linecap="round" stroke-linejoin="round"/>
<path d="M40 22.5V26.75C40 26.9489 40.079 27.1397 40.2197 27.2803C40.3603 27.421 40.5511 27.5 40.75 27.5H45M44.99 38.9062L48.185 39.7175C48.5175 39.8025 48.7513 40.105 48.7413 40.4475C48.5263 47.645 44.375 48.75 44.375 48.75C44.375 48.75 40.2237 47.645 40.0087 40.4475C40.0053 40.2809 40.0585 40.118 40.1595 39.9854C40.2605 39.8529 40.4034 39.7584 40.565 39.7175L43.76 38.9062C44.1637 38.8037 44.5863 38.8037 44.99 38.9062Z" stroke="white" stroke-width="1.5" stroke-linecap="round" stroke-linejoin="round"/>
</svg>
