<svg width="42" height="30" viewBox="0 0 42 30" fill="none" xmlns="http://www.w3.org/2000/svg">
<path d="M26 15H38.5C39.163 15 39.7989 14.7366 40.2678 14.2678C40.7366 13.7989 41 13.163 41 12.5V3.75C41 3.08696 40.7366 2.45107 40.2678 1.98223C39.7989 1.51339 39.163 1.25 38.5 1.25H28.5C27.837 1.25 27.2011 1.51339 26.7322 1.98223C26.2634 2.45107 26 3.08696 26 3.75V15ZM26 15C26 21.25 28.5 25 36 28.75M1 15H13.5C14.163 15 14.7989 14.7366 15.2678 14.2678C15.7366 13.7989 16 13.163 16 12.5V3.75C16 3.08696 15.7366 2.45107 15.2678 1.98223C14.7989 1.51339 14.163 1.25 13.5 1.25H3.5C2.83696 1.25 2.20107 1.51339 1.73223 1.98223C1.26339 2.45107 1 3.08696 1 3.75V15ZM1 15C1 21.25 3.5 25 11 28.75" stroke="#25D366" stroke-width="1.5" stroke-linecap="round"/>
</svg>
